2021-06-22 00:10:42,349  INFO RY.TransferImagePro.Services.ImageTranformService.? [?] - MESSAGE: rtsp://192.168.1.168/02021/6/22 0:10:42
 2021-06-22 00:10:43,284  INFO Microsoft.Hosting.Lifetime.? [?] - MESSAGE: Application started. Press Ctrl+C to shut down.
 2021-06-22 00:10:43,296  INFO Microsoft.Hosting.Lifetime.? [?] - MESSAGE: Hosting environment: Development
 2021-06-22 00:10:43,351  INFO Microsoft.Hosting.Lifetime.? [?] - MESSAGE: Content root path: E:\RY.TransferImagePro\RY.TransferImagePro
 2021-06-22 00:11:59,667  INFO RY.TransferImagePro.Services.ImageTranformService.? [?] - MESSAGE: rtsp://192.168.1.168/02021/6/22 0:11:59
 2021-06-22 00:12:11,490  INFO Microsoft.Hosting.Lifetime.? [?] - MESSAGE: Application started. Press Ctrl+C to shut down.
 2021-06-22 00:12:11,499  INFO Microsoft.Hosting.Lifetime.? [?] - MESSAGE: Hosting environment: Development
 2021-06-22 00:12:11,510  INFO Microsoft.Hosting.Lifetime.? [?] - MESSAGE: Content root path: E:\RY.TransferImagePro\RY.TransferImagePro
 2021-06-22 00:13:33,677  INFO RY.TransferImagePro.Services.ImageTranformService.? [?] - MESSAGE: rtsp://192.168.1.168/02021/6/22 0:13:33
 2021-06-22 00:13:37,510  INFO Microsoft.Hosting.Lifetime.? [?] - MESSAGE: Application started. Press Ctrl+C to shut down.
 2021-06-22 00:13:37,523  INFO Microsoft.Hosting.Lifetime.? [?] - MESSAGE: Hosting environment: Development
 2021-06-22 00:13:37,553  INFO Microsoft.Hosting.Lifetime.? [?] - MESSAGE: Content root path: E:\RY.TransferImagePro\RY.TransferImagePro
 2021-06-22 00:17:49,989  INFO RY.TransferImagePro.Services.ImageTranformService.? [?] - MESSAGE: rtsp://192.168.1.168/02021/6/22 0:17:49
 2021-06-22 00:17:53,403  INFO Microsoft.Hosting.Lifetime.? [?] - MESSAGE: Application started. Press Ctrl+C to shut down.
 2021-06-22 00:17:53,418  INFO Microsoft.Hosting.Lifetime.? [?] - MESSAGE: Hosting environment: Development
 2021-06-22 00:17:53,448  INFO Microsoft.Hosting.Lifetime.? [?] - MESSAGE: Content root path: E:\RY.TransferImagePro\RY.TransferImagePro
 2021-06-22 00:20:00,106  INFO RY.TransferImagePro.Services.ImageTranformService.? [?] - MESSAGE: rtsp://192.168.1.168/02021/6/22 0:20:00
 2021-06-22 00:20:04,010  INFO Microsoft.Hosting.Lifetime.? [?] - MESSAGE: Application started. Press Ctrl+C to shut down.
 2021-06-22 00:20:04,023  INFO Microsoft.Hosting.Lifetime.? [?] - MESSAGE: Hosting environment: Development
 2021-06-22 00:20:04,056  INFO Microsoft.Hosting.Lifetime.? [?] - MESSAGE: Content root path: E:\RY.TransferImagePro\RY.TransferImagePro
 2021-06-22 00:20:16,255 ERROR RY.TransferImagePro.Services.ImageTranformService.? [?] - MESSAGE: ffmpeg version git-2020-04-12-f1894c2 Copyright (c) 2000-2020 the FFmpeg developers
  built with gcc 9.3.1 (GCC) 20200328
  configuration: --enable-gpl --enable-version3 --enable-sdl2 --enable-fontconfig --enable-gnutls --enable-iconv --enable-libass --enable-libdav1d --enable-libbluray --enable-libfreetype --enable-libmp3lame --enable-libopencore-amrnb --enable-libopencore-amrwb --enable-libopenjpeg --enable-libopus --enable-libshine --enable-libsnappy --enable-libsoxr --enable-libsrt --enable-libtheora --enable-libtwolame --enable-libvpx --enable-libwavpack --enable-libwebp --enable-libx264 --enable-libx265 --enable-libxml2 --enable-libzimg --enable-lzma --enable-zlib --enable-gmp --enable-libvidstab --enable-libvmaf --enable-libvorbis --enable-libvo-amrwbenc --enable-libmysofa --enable-libspeex --enable-libxvid --enable-libaom --disable-w32threads --enable-libmfx --enable-ffnvcodec --enable-cuda-llvm --enable-cuvid --enable-d3d11va --enable-nvenc --enable-nvdec --enable-dxva2 --enable-avisynth --enable-libopenmpt --enable-amf
  libavutil      56. 42.102 / 56. 42.102
  libavcodec     58. 78.102 / 58. 78.102
  libavformat    58. 42.100 / 58. 42.100
  libavdevice    58.  9.103 / 58.  9.103
  libavfilter     7. 77.101 /  7. 77.101
  libswscale      5.  6.101 /  5.  6.101
  libswresample   3.  6.100 /  3.  6.100
  libpostproc    55.  6.100 / 55.  6.100
Input #0, rtsp, from 'rtsp://192.168.1.168/0':
  Metadata:
    title           : Unnamed
    comment         : N/A
  Duration: N/A, start: 0.000000, bitrate: N/A
    Stream #0:0: Video: h264 (High), yuv420p(progressive), 1920x1080, 60 tbr, 90k tbn, 180k tbc
    Stream #0:1: Audio: aac (LC), 44100 Hz, stereo, fltp
Automatic encoder selection failed for output stream #0:1. Default encoder for format image2 (codec none) is probably disabled. Please choose an encoder manually.
Error selecting an encoder for stream 0:1
 2021-06-22 00:21:18,425  INFO RY.TransferImagePro.Services.ImageTranformService.? [?] - MESSAGE: rtsp://192.168.1.168/02021/6/22 0:21:18
 2021-06-22 00:21:43,918  INFO Microsoft.Hosting.Lifetime.? [?] - MESSAGE: Application started. Press Ctrl+C to shut down.
 2021-06-22 00:21:43,924  INFO Microsoft.Hosting.Lifetime.? [?] - MESSAGE: Hosting environment: Development
 2021-06-22 00:21:43,940  INFO Microsoft.Hosting.Lifetime.? [?] - MESSAGE: Content root path: E:\RY.TransferImagePro\RY.TransferImagePro
 2021-06-22 00:22:37,539 ERROR RY.TransferImagePro.Services.ImageTranformService.? [?] - MESSAGE: ffmpeg version git-2020-04-12-f1894c2 Copyright (c) 2000-2020 the FFmpeg developers
  built with gcc 9.3.1 (GCC) 20200328
  configuration: --enable-gpl --enable-version3 --enable-sdl2 --enable-fontconfig --enable-gnutls --enable-iconv --enable-libass --enable-libdav1d --enable-libbluray --enable-libfreetype --enable-libmp3lame --enable-libopencore-amrnb --enable-libopencore-amrwb --enable-libopenjpeg --enable-libopus --enable-libshine --enable-libsnappy --enable-libsoxr --enable-libsrt --enable-libtheora --enable-libtwolame --enable-libvpx --enable-libwavpack --enable-libwebp --enable-libx264 --enable-libx265 --enable-libxml2 --enable-libzimg --enable-lzma --enable-zlib --enable-gmp --enable-libvidstab --enable-libvmaf --enable-libvorbis --enable-libvo-amrwbenc --enable-libmysofa --enable-libspeex --enable-libxvid --enable-libaom --disable-w32threads --enable-libmfx --enable-ffnvcodec --enable-cuda-llvm --enable-cuvid --enable-d3d11va --enable-nvenc --enable-nvdec --enable-dxva2 --enable-avisynth --enable-libopenmpt --enable-amf
  libavutil      56. 42.102 / 56. 42.102
  libavcodec     58. 78.102 / 58. 78.102
  libavformat    58. 42.100 / 58. 42.100
  libavdevice    58.  9.103 / 58.  9.103
  libavfilter     7. 77.101 /  7. 77.101
  libswscale      5.  6.101 /  5.  6.101
  libswresample   3.  6.100 /  3.  6.100
  libpostproc    55.  6.100 / 55.  6.100
Input #0, rtsp, from 'rtsp://192.168.1.168/0':
  Metadata:
    title           : Unnamed
    comment         : N/A
  Duration: N/A, start: 0.000000, bitrate: N/A
    Stream #0:0: Video: h264 (High), yuv420p(progressive), 1920x1080, 60 tbr, 90k tbn, 180k tbc
    Stream #0:1: Audio: aac (LC), 44100 Hz, stereo, fltp
Automatic encoder selection failed for output stream #0:1. Default encoder for format image2 (codec none) is probably disabled. Please choose an encoder manually.
Error selecting an encoder for stream 0:1
 2021-06-22 00:23:52,696  INFO RY.TransferImagePro.Services.ImageTranformService.? [?] - MESSAGE: rtsp://192.168.1.168/02021/6/22 0:23:52
 2021-06-22 00:24:17,959  INFO Microsoft.Hosting.Lifetime.? [?] - MESSAGE: Application started. Press Ctrl+C to shut down.
 2021-06-22 00:24:17,977  INFO Microsoft.Hosting.Lifetime.? [?] - MESSAGE: Hosting environment: Development
 2021-06-22 00:24:17,983  INFO Microsoft.Hosting.Lifetime.? [?] - MESSAGE: Content root path: E:\RY.TransferImagePro\RY.TransferImagePro
 2021-06-22 00:24:25,502 ERROR RY.TransferImagePro.Services.ImageTranformService.? [?] - MESSAGE: ffmpeg version git-2020-04-12-f1894c2 Copyright (c) 2000-2020 the FFmpeg developers
  built with gcc 9.3.1 (GCC) 20200328
  configuration: --enable-gpl --enable-version3 --enable-sdl2 --enable-fontconfig --enable-gnutls --enable-iconv --enable-libass --enable-libdav1d --enable-libbluray --enable-libfreetype --enable-libmp3lame --enable-libopencore-amrnb --enable-libopencore-amrwb --enable-libopenjpeg --enable-libopus --enable-libshine --enable-libsnappy --enable-libsoxr --enable-libsrt --enable-libtheora --enable-libtwolame --enable-libvpx --enable-libwavpack --enable-libwebp --enable-libx264 --enable-libx265 --enable-libxml2 --enable-libzimg --enable-lzma --enable-zlib --enable-gmp --enable-libvidstab --enable-libvmaf --enable-libvorbis --enable-libvo-amrwbenc --enable-libmysofa --enable-libspeex --enable-libxvid --enable-libaom --disable-w32threads --enable-libmfx --enable-ffnvcodec --enable-cuda-llvm --enable-cuvid --enable-d3d11va --enable-nvenc --enable-nvdec --enable-dxva2 --enable-avisynth --enable-libopenmpt --enable-amf
  libavutil      56. 42.102 / 56. 42.102
  libavcodec     58. 78.102 / 58. 78.102
  libavformat    58. 42.100 / 58. 42.100
  libavdevice    58.  9.103 / 58.  9.103
  libavfilter     7. 77.101 /  7. 77.101
  libswscale      5.  6.101 /  5.  6.101
  libswresample   3.  6.100 /  3.  6.100
  libpostproc    55.  6.100 / 55.  6.100
Input #0, rtsp, from 'rtsp://192.168.1.168/0':
  Metadata:
    title           : Unnamed
    comment         : N/A
  Duration: N/A, start: 0.000000, bitrate: N/A
    Stream #0:0: Video: h264 (High), yuv420p(progressive), 1920x1080, 59.94 tbr, 90k tbn, 180k tbc
    Stream #0:1: Audio: aac (LC), 44100 Hz, stereo, fltp
Automatic encoder selection failed for output stream #0:1. Default encoder for format image2 (codec none) is probably disabled. Please choose an encoder manually.
Error selecting an encoder for stream 0:1
 2021-06-22 00:25:30,801  INFO RY.TransferImagePro.Services.ImageTranformService.? [?] - MESSAGE: rtsp://192.168.1.168/02021/6/22 0:25:30
 2021-06-22 00:25:40,948  INFO Microsoft.Hosting.Lifetime.? [?] - MESSAGE: Application started. Press Ctrl+C to shut down.
 2021-06-22 00:25:40,962  INFO Microsoft.Hosting.Lifetime.? [?] - MESSAGE: Hosting environment: Development
 2021-06-22 00:25:40,993  INFO Microsoft.Hosting.Lifetime.? [?] - MESSAGE: Content root path: E:\RY.TransferImagePro\RY.TransferImagePro
 2021-06-22 00:25:47,341 ERROR RY.TransferImagePro.Services.ImageTranformService.? [?] - MESSAGE: ffmpeg version git-2020-04-12-f1894c2 Copyright (c) 2000-2020 the FFmpeg developers
  built with gcc 9.3.1 (GCC) 20200328
  configuration: --enable-gpl --enable-version3 --enable-sdl2 --enable-fontconfig --enable-gnutls --enable-iconv --enable-libass --enable-libdav1d --enable-libbluray --enable-libfreetype --enable-libmp3lame --enable-libopencore-amrnb --enable-libopencore-amrwb --enable-libopenjpeg --enable-libopus --enable-libshine --enable-libsnappy --enable-libsoxr --enable-libsrt --enable-libtheora --enable-libtwolame --enable-libvpx --enable-libwavpack --enable-libwebp --enable-libx264 --enable-libx265 --enable-libxml2 --enable-libzimg --enable-lzma --enable-zlib --enable-gmp --enable-libvidstab --enable-libvmaf --enable-libvorbis --enable-libvo-amrwbenc --enable-libmysofa --enable-libspeex --enable-libxvid --enable-libaom --disable-w32threads --enable-libmfx --enable-ffnvcodec --enable-cuda-llvm --enable-cuvid --enable-d3d11va --enable-nvenc --enable-nvdec --enable-dxva2 --enable-avisynth --enable-libopenmpt --enable-amf
  libavutil      56. 42.102 / 56. 42.102
  libavcodec     58. 78.102 / 58. 78.102
  libavformat    58. 42.100 / 58. 42.100
  libavdevice    58.  9.103 / 58.  9.103
  libavfilter     7. 77.101 /  7. 77.101
  libswscale      5.  6.101 /  5.  6.101
  libswresample   3.  6.100 /  3.  6.100
  libpostproc    55.  6.100 / 55.  6.100
Input #0, rtsp, from 'rtsp://192.168.1.168/0':
  Metadata:
    title           : Unnamed
    comment         : N/A
  Duration: N/A, start: 0.000000, bitrate: N/A
    Stream #0:0: Video: h264 (High), yuv420p(progressive), 1920x1080, 60 tbr, 90k tbn, 180k tbc
    Stream #0:1: Audio: aac (LC), 44100 Hz, stereo, fltp
Automatic encoder selection failed for output stream #0:1. Default encoder for format image2 (codec none) is probably disabled. Please choose an encoder manually.
Error selecting an encoder for stream 0:1
 2021-06-22 00:29:28,911  INFO RY.TransferImagePro.Services.ImageTranformService.? [?] - MESSAGE: rtsp://192.168.1.168/02021/6/22 0:29:28
 2021-06-22 00:29:29,637  INFO Microsoft.Hosting.Lifetime.? [?] - MESSAGE: Application started. Press Ctrl+C to shut down.
 2021-06-22 00:29:29,672  INFO Microsoft.Hosting.Lifetime.? [?] - MESSAGE: Hosting environment: Development
 2021-06-22 00:29:29,693  INFO Microsoft.Hosting.Lifetime.? [?] - MESSAGE: Content root path: E:\RY.TransferImagePro\RY.TransferImagePro
 2021-06-22 00:29:36,826 ERROR RY.TransferImagePro.Services.ImageTranformService.? [?] - MESSAGE: ffmpeg version git-2020-04-12-f1894c2 Copyright (c) 2000-2020 the FFmpeg developers
  built with gcc 9.3.1 (GCC) 20200328
  configuration: --enable-gpl --enable-version3 --enable-sdl2 --enable-fontconfig --enable-gnutls --enable-iconv --enable-libass --enable-libdav1d --enable-libbluray --enable-libfreetype --enable-libmp3lame --enable-libopencore-amrnb --enable-libopencore-amrwb --enable-libopenjpeg --enable-libopus --enable-libshine --enable-libsnappy --enable-libsoxr --enable-libsrt --enable-libtheora --enable-libtwolame --enable-libvpx --enable-libwavpack --enable-libwebp --enable-libx264 --enable-libx265 --enable-libxml2 --enable-libzimg --enable-lzma --enable-zlib --enable-gmp --enable-libvidstab --enable-libvmaf --enable-libvorbis --enable-libvo-amrwbenc --enable-libmysofa --enable-libspeex --enable-libxvid --enable-libaom --disable-w32threads --enable-libmfx --enable-ffnvcodec --enable-cuda-llvm --enable-cuvid --enable-d3d11va --enable-nvenc --enable-nvdec --enable-dxva2 --enable-avisynth --enable-libopenmpt --enable-amf
  libavutil      56. 42.102 / 56. 42.102
  libavcodec     58. 78.102 / 58. 78.102
  libavformat    58. 42.100 / 58. 42.100
  libavdevice    58.  9.103 / 58.  9.103
  libavfilter     7. 77.101 /  7. 77.101
  libswscale      5.  6.101 /  5.  6.101
  libswresample   3.  6.100 /  3.  6.100
  libpostproc    55.  6.100 / 55.  6.100
Input #0, rtsp, from 'rtsp://192.168.1.168/0':
  Metadata:
    title           : Unnamed
    comment         : N/A
  Duration: N/A, start: 0.000000, bitrate: N/A
    Stream #0:0: Video: h264 (High), yuv420p(progressive), 1920x1080, 59.94 tbr, 90k tbn, 180k tbc
    Stream #0:1: Audio: aac (LC), 44100 Hz, stereo, fltp
Filtergraph 'fps=fps=50' was defined for video output stream 0:0 but codec copy was selected.
Filtering and streamcopy cannot be used together.
 2021-06-22 00:34:21,618  INFO RY.TransferImagePro.Services.ImageTranformService.? [?] - MESSAGE: rtsp://192.168.1.168/02021/6/22 0:34:21
 2021-06-22 00:34:22,217  INFO Microsoft.Hosting.Lifetime.? [?] - MESSAGE: Application started. Press Ctrl+C to shut down.
 2021-06-22 00:34:22,228  INFO Microsoft.Hosting.Lifetime.? [?] - MESSAGE: Hosting environment: Development
 2021-06-22 00:34:22,241  INFO Microsoft.Hosting.Lifetime.? [?] - MESSAGE: Content root path: E:\RY.TransferImagePro\RY.TransferImagePro
 2021-06-22 00:59:36,137  INFO RY.TransferImagePro.Services.ImageTranformService.? [?] - MESSAGE: rtsp://192.168.1.168/02021/6/22 0:59:36
 2021-06-22 00:59:37,646  INFO Microsoft.Hosting.Lifetime.? [?] - MESSAGE: Application started. Press Ctrl+C to shut down.
 2021-06-22 00:59:37,864  INFO Microsoft.Hosting.Lifetime.? [?] - MESSAGE: Hosting environment: Development
 2021-06-22 00:59:37,907  INFO Microsoft.Hosting.Lifetime.? [?] - MESSAGE: Content root path: E:\RY.TransferImagePro\RY.TransferImagePro
 2021-06-22 01:37:06,101  INFO RY.TransferImagePro.Services.ImageTranformService.? [?] - MESSAGE: rtsp://192.168.1.168/02021/6/22 1:37:06
 2021-06-22 01:37:06,396  INFO Microsoft.Hosting.Lifetime.? [?] - MESSAGE: Application started. Press Ctrl+C to shut down.
 2021-06-22 01:37:06,402  INFO Microsoft.Hosting.Lifetime.? [?] - MESSAGE: Hosting environment: Development
 2021-06-22 01:37:06,408  INFO Microsoft.Hosting.Lifetime.? [?] - MESSAGE: Content root path: E:\RY.TransferImagePro\RY.TransferImagePro
 2021-06-22 01:43:44,229  INFO RY.TransferImagePro.Services.ImageTranformService.? [?] - MESSAGE: rtsp://192.168.1.168/02021/6/22 1:43:44
 2021-06-22 01:43:44,501  INFO Microsoft.Hosting.Lifetime.? [?] - MESSAGE: Application started. Press Ctrl+C to shut down.
 2021-06-22 01:43:44,507  INFO Microsoft.Hosting.Lifetime.? [?] - MESSAGE: Hosting environment: Development
 2021-06-22 01:43:44,521  INFO Microsoft.Hosting.Lifetime.? [?] - MESSAGE: Content root path: E:\RY.TransferImagePro\RY.TransferImagePro
 2021-06-22 01:51:11,544  INFO RY.TransferImagePro.Services.ImageTranformService.? [?] - MESSAGE: rtsp://192.168.1.168/02021/6/22 1:51:11
 2021-06-22 01:51:12,187  INFO Microsoft.Hosting.Lifetime.? [?] - MESSAGE: Application started. Press Ctrl+C to shut down.
 2021-06-22 01:51:12,199  INFO Microsoft.Hosting.Lifetime.? [?] - MESSAGE: Hosting environment: Development
 2021-06-22 01:51:12,236  INFO Microsoft.Hosting.Lifetime.? [?] - MESSAGE: Content root path: E:\RY.TransferImagePro\RY.TransferImagePro
 2021-06-22 01:52:03,416  INFO RY.TransferImagePro.Services.ImageTranformService.? [?] - MESSAGE: rtsp://192.168.1.168/02021/6/22 1:52:03
 2021-06-22 01:52:04,085  INFO Microsoft.Hosting.Lifetime.? [?] - MESSAGE: Application started. Press Ctrl+C to shut down.
 2021-06-22 01:52:04,095  INFO Microsoft.Hosting.Lifetime.? [?] - MESSAGE: Hosting environment: Development
 2021-06-22 01:52:04,105  INFO Microsoft.Hosting.Lifetime.? [?] - MESSAGE: Content root path: E:\RY.TransferImagePro\RY.TransferImagePro
 2021-06-22 01:54:10,697  INFO RY.TransferImagePro.Services.ImageTranformService.? [?] - MESSAGE: rtsp://192.168.1.168/02021/6/22 1:54:10
 2021-06-22 01:54:29,902  INFO Microsoft.Hosting.Lifetime.? [?] - MESSAGE: Application started. Press Ctrl+C to shut down.
 2021-06-22 01:54:29,913  INFO Microsoft.Hosting.Lifetime.? [?] - MESSAGE: Hosting environment: Development
 2021-06-22 01:54:29,940  INFO Microsoft.Hosting.Lifetime.? [?] - MESSAGE: Content root path: E:\RY.TransferImagePro\RY.TransferImagePro
 2021-06-22 01:56:43,167  INFO RY.TransferImagePro.Services.ImageTranformService.? [?] - MESSAGE: rtsp://192.168.1.168/02021/6/22 1:56:43
 2021-06-22 01:56:44,150  INFO Microsoft.Hosting.Lifetime.? [?] - MESSAGE: Application started. Press Ctrl+C to shut down.
 2021-06-22 01:56:44,182  INFO Microsoft.Hosting.Lifetime.? [?] - MESSAGE: Hosting environment: Development
 2021-06-22 01:56:44,193  INFO Microsoft.Hosting.Lifetime.? [?] - MESSAGE: Content root path: E:\RY.TransferImagePro\RY.TransferImagePro
 2021-06-22 02:01:16,790  INFO RY.TransferImagePro.Services.ImageTranformService.? [?] - MESSAGE: rtsp://192.168.1.168/02021/6/22 2:01:16
 2021-06-22 02:01:17,418  INFO Microsoft.Hosting.Lifetime.? [?] - MESSAGE: Application started. Press Ctrl+C to shut down.
 2021-06-22 02:01:17,431  INFO Microsoft.Hosting.Lifetime.? [?] - MESSAGE: Hosting environment: Development
 2021-06-22 02:01:17,471  INFO Microsoft.Hosting.Lifetime.? [?] - MESSAGE: Content root path: E:\RY.TransferImagePro\RY.TransferImagePro
 2021-06-22 02:17:12,479  INFO RY.TransferImagePro.Services.ImageTranformService.? [?] - MESSAGE: rtsp://192.168.1.168/02021/6/22 2:17:12
 2021-06-22 02:17:12,705  INFO Microsoft.Hosting.Lifetime.? [?] - MESSAGE: Application started. Press Ctrl+C to shut down.
 2021-06-22 02:17:12,709  INFO Microsoft.Hosting.Lifetime.? [?] - MESSAGE: Hosting environment: Development
 2021-06-22 02:17:12,721  INFO Microsoft.Hosting.Lifetime.? [?] - MESSAGE: Content root path: E:\RY.TransferImagePro\RY.TransferImagePro
 2021-06-22 02:17:12,993 ERROR RY.TransferImagePro.Services.ImageTranformService.? [?] - MESSAGE: 接收数据：ffmpeg version git-2020-04-12-f1894c2 Copyright (c) 2000-2020 the FFmpeg developers
 2021-06-22 02:17:12,999 ERROR RY.TransferImagePro.Services.ImageTranformService.? [?] - MESSAGE: 接收数据：  built with gcc 9.3.1 (GCC) 20200328
 2021-06-22 02:17:13,004 ERROR RY.TransferImagePro.Services.ImageTranformService.? [?] - MESSAGE: 接收数据：  configuration: --enable-gpl --enable-version3 --enable-sdl2 --enable-fontconfig --enable-gnutls --enable-iconv --enable-libass --enable-libdav1d --enable-libbluray --enable-libfreetype --enable-libmp3lame --enable-libopencore-amrnb --enable-libopencore-amrwb --enable-libopenjpeg --enable-libopus --enable-libshine --enable-libsnappy --enable-libsoxr --enable-libsrt --enable-libtheora --enable-libtwolame --enable-libvpx --enable-libwavpack --enable-libwebp --enable-libx264 --enable-libx265 --enable-libxml2 --enable-libzimg --enable-lzma --enable-zlib --enable-gmp --enable-libvidstab --enable-libvmaf --enable-libvorbis --enable-libvo-amrwbenc --enable-libmysofa --enable-libspeex --enable-libxvid --enable-libaom --disable-w32threads --enable-libmfx --enable-ffnvcodec --enable-cuda-llvm --enable-cuvid --enable-d3d11va --enable-nvenc --enable-nvdec --enable-dxva2 --enable-avisynth --enable-libopenmpt --enable-amf
 2021-06-22 02:17:13,008 ERROR RY.TransferImagePro.Services.ImageTranformService.? [?] - MESSAGE: 接收数据：  libavutil      56. 42.102 / 56. 42.102
 2021-06-22 02:17:13,012 ERROR RY.TransferImagePro.Services.ImageTranformService.? [?] - MESSAGE: 接收数据：  libavcodec     58. 78.102 / 58. 78.102
 2021-06-22 02:17:13,016 ERROR RY.TransferImagePro.Services.ImageTranformService.? [?] - MESSAGE: 接收数据：  libavformat    58. 42.100 / 58. 42.100
 2021-06-22 02:17:13,020 ERROR RY.TransferImagePro.Services.ImageTranformService.? [?] - MESSAGE: 接收数据：  libavdevice    58.  9.103 / 58.  9.103
 2021-06-22 02:17:13,023 ERROR RY.TransferImagePro.Services.ImageTranformService.? [?] - MESSAGE: 接收数据：  libavfilter     7. 77.101 /  7. 77.101
 2021-06-22 02:17:13,026 ERROR RY.TransferImagePro.Services.ImageTranformService.? [?] - MESSAGE: 接收数据：  libswscale      5.  6.101 /  5.  6.101
 2021-06-22 02:17:13,031 ERROR RY.TransferImagePro.Services.ImageTranformService.? [?] - MESSAGE: 接收数据：  libswresample   3.  6.100 /  3.  6.100
 2021-06-22 02:17:13,035 ERROR RY.TransferImagePro.Services.ImageTranformService.? [?] - MESSAGE: 接收数据：  libpostproc    55.  6.100 / 55.  6.100
 2021-06-22 02:17:14,281 ERROR RY.TransferImagePro.Services.ImageTranformService.? [?] - MESSAGE: 接收数据：Input #0, rtsp, from 'rtsp://192.168.1.168/0':
 2021-06-22 02:17:14,289 ERROR RY.TransferImagePro.Services.ImageTranformService.? [?] - MESSAGE: 接收数据：  Metadata:
 2021-06-22 02:17:14,296 ERROR RY.TransferImagePro.Services.ImageTranformService.? [?] - MESSAGE: 接收数据：    title           : Unnamed
 2021-06-22 02:17:14,302 ERROR RY.TransferImagePro.Services.ImageTranformService.? [?] - MESSAGE: 接收数据：    comment         : N/A
 2021-06-22 02:17:14,308 ERROR RY.TransferImagePro.Services.ImageTranformService.? [?] - MESSAGE: 接收数据：  Duration: N/A, start: 0.000000, bitrate: N/A
 2021-06-22 02:17:14,312 ERROR RY.TransferImagePro.Services.ImageTranformService.? [?] - MESSAGE: 接收数据：    Stream #0:0: Video: h264 (High), yuv420p(progressive), 1920x1080, 60 tbr, 90k tbn, 180k tbc
 2021-06-22 02:17:14,317 ERROR RY.TransferImagePro.Services.ImageTranformService.? [?] - MESSAGE: 接收数据：    Stream #0:1: Audio: aac (LC), 44100 Hz, stereo, fltp
 2021-06-22 02:17:14,324 ERROR RY.TransferImagePro.Services.ImageTranformService.? [?] - MESSAGE: 接收数据：Stream mapping:
 2021-06-22 02:17:14,330 ERROR RY.TransferImagePro.Services.ImageTranformService.? [?] - MESSAGE: 接收数据：  Stream #0:0 -> #0:0 (h264 (native) -> mjpeg (native))
 2021-06-22 02:17:14,337 ERROR RY.TransferImagePro.Services.ImageTranformService.? [?] - MESSAGE: 接收数据：Press [q] to stop, [?] for help
 2021-06-22 02:17:14,343 ERROR RY.TransferImagePro.Services.ImageTranformService.? [?] - MESSAGE: 接收数据：[swscaler @ 0000016447bf8f80] deprecated pixel format used, make sure you did set range correctly
 2021-06-22 02:17:14,374 ERROR RY.TransferImagePro.Services.ImageTranformService.? [?] - MESSAGE: 接收数据：Output #0, image2, to 'E:\RY.TransferImagePro\RY.TransferImagePro\Images\20210622021712501\%05d.jpeg':
 2021-06-22 02:17:14,379 ERROR RY.TransferImagePro.Services.ImageTranformService.? [?] - MESSAGE: 接收数据：  Metadata:
 2021-06-22 02:17:14,384 ERROR RY.TransferImagePro.Services.ImageTranformService.? [?] - MESSAGE: 接收数据：    title           : Unnamed
 2021-06-22 02:17:14,388 ERROR RY.TransferImagePro.Services.ImageTranformService.? [?] - MESSAGE: 接收数据：    comment         : N/A
 2021-06-22 02:17:14,393 ERROR RY.TransferImagePro.Services.ImageTranformService.? [?] - MESSAGE: 接收数据：    encoder         : Lavf58.42.100
 2021-06-22 02:17:14,398 ERROR RY.TransferImagePro.Services.ImageTranformService.? [?] - MESSAGE: 接收数据：    Stream #0:0: Video: mjpeg, yuvj420p(pc), 1920x1080, q=2-31, 200 kb/s, 60 fps, 60 tbn, 60 tbc
 2021-06-22 02:17:14,402 ERROR RY.TransferImagePro.Services.ImageTranformService.? [?] - MESSAGE: 接收数据：    Metadata:
 2021-06-22 02:17:14,408 ERROR RY.TransferImagePro.Services.ImageTranformService.? [?] - MESSAGE: 接收数据：      encoder         : Lavc58.78.102 mjpeg
 2021-06-22 02:17:14,416 ERROR RY.TransferImagePro.Services.ImageTranformService.? [?] - MESSAGE: 接收数据：    Side data:
 2021-06-22 02:17:14,421 ERROR RY.TransferImagePro.Services.ImageTranformService.? [?] - MESSAGE: 接收数据：      cpb: bitrate max/min/avg: 0/0/200000 buffer size: 0 vbv_delay: N/A
 2021-06-22 02:17:14,811 ERROR RY.TransferImagePro.Services.ImageTranformService.? [?] - MESSAGE: 接收数据：frame=    8 fps=0.0 q=2.0 size=N/A time=00:00:00.71 bitrate=N/A speed= 1.4x    
 2021-06-22 02:17:15,331 ERROR RY.TransferImagePro.Services.ImageTranformService.? [?] - MESSAGE: 接收数据：frame=   12 fps= 12 q=2.0 size=N/A time=00:00:01.26 bitrate=N/A speed=1.25x    
 2021-06-22 02:17:15,822 ERROR RY.TransferImagePro.Services.ImageTranformService.? [?] - MESSAGE: 接收数据：frame=   16 fps= 11 q=2.0 size=N/A time=00:00:01.81 bitrate=N/A speed=1.19x    
 2021-06-22 02:17:16,329 ERROR RY.TransferImagePro.Services.ImageTranformService.? [?] - MESSAGE: 接收数据：frame=   19 fps=9.4 q=2.0 size=N/A time=00:00:02.23 bitrate=N/A speed= 1.1x    
 2021-06-22 02:17:16,843 ERROR RY.TransferImagePro.Services.ImageTranformService.? [?] - MESSAGE: 接收数据：frame=   23 fps=9.1 q=2.0 size=N/A time=00:00:02.80 bitrate=N/A speed= 1.1x    
 2021-06-22 02:17:17,341 ERROR RY.TransferImagePro.Services.ImageTranformService.? [?] - MESSAGE: 接收数据：frame=   27 fps=8.9 q=2.0 size=N/A time=00:00:03.35 bitrate=N/A speed= 1.1x    
 2021-06-22 02:17:17,838 ERROR RY.TransferImagePro.Services.ImageTranformService.? [?] - MESSAGE: 接收数据：frame=   30 fps=8.5 q=2.0 size=N/A time=00:00:03.76 bitrate=N/A speed=1.06x    
 2021-06-22 02:17:18,330 ERROR RY.TransferImagePro.Services.ImageTranformService.? [?] - MESSAGE: 接收数据：frame=   34 fps=8.4 q=2.0 size=N/A time=00:00:04.31 bitrate=N/A speed=1.07x    
 2021-06-22 02:17:18,866 ERROR RY.TransferImagePro.Services.ImageTranformService.? [?] - MESSAGE: 接收数据：frame=   37 fps=8.1 q=2.0 size=N/A time=00:00:04.73 bitrate=N/A speed=1.04x    
 2021-06-22 02:17:19,371 ERROR RY.TransferImagePro.Services.ImageTranformService.? [?] - MESSAGE: 接收数据：frame=   41 fps=8.1 q=2.0 size=N/A time=00:00:05.30 bitrate=N/A speed=1.05x    
 2021-06-22 02:17:19,870 ERROR RY.TransferImagePro.Services.ImageTranformService.? [?] - MESSAGE: 接收数据：frame=   45 fps=8.1 q=2.0 size=N/A time=00:00:05.85 bitrate=N/A speed=1.05x    
 2021-06-22 02:17:20,372 ERROR RY.TransferImagePro.Services.ImageTranformService.? [?] - MESSAGE: 接收数据：frame=   48 fps=7.9 q=2.0 size=N/A time=00:00:06.26 bitrate=N/A speed=1.03x    
 2021-06-22 02:17:20,870 ERROR RY.TransferImagePro.Services.ImageTranformService.? [?] - MESSAGE: 接收数据：frame=   52 fps=7.9 q=2.0 size=N/A time=00:00:06.81 bitrate=N/A speed=1.04x    
 2021-06-22 02:17:21,398 ERROR RY.TransferImagePro.Services.ImageTranformService.? [?] - MESSAGE: 接收数据：frame=   56 fps=7.9 q=2.0 size=N/A time=00:00:07.38 bitrate=N/A speed=1.04x    
 2021-06-22 02:17:21,925 ERROR RY.TransferImagePro.Services.ImageTranformService.? [?] - MESSAGE: 接收数据：frame=   60 fps=7.9 q=2.0 size=N/A time=00:00:07.93 bitrate=N/A speed=1.04x    
 2021-06-22 02:17:22,428 ERROR RY.TransferImagePro.Services.ImageTranformService.? [?] - MESSAGE: 接收数据：frame=   63 fps=7.8 q=2.0 size=N/A time=00:00:08.35 bitrate=N/A speed=1.03x    
 2021-06-22 02:17:22,920 ERROR RY.TransferImagePro.Services.ImageTranformService.? [?] - MESSAGE: 接收数据：frame=   67 fps=7.8 q=2.0 size=N/A time=00:00:08.90 bitrate=N/A speed=1.03x    
 2021-06-22 02:17:23,458 ERROR RY.TransferImagePro.Services.ImageTranformService.? [?] - MESSAGE: 接收数据：frame=   71 fps=7.8 q=2.0 size=N/A time=00:00:09.46 bitrate=N/A speed=1.04x    
 2021-06-22 02:17:23,958 ERROR RY.TransferImagePro.Services.ImageTranformService.? [?] - MESSAGE: 接收数据：frame=   74 fps=7.7 q=2.0 size=N/A time=00:00:09.88 bitrate=N/A speed=1.02x    
 2021-06-22 02:17:24,454 ERROR RY.TransferImagePro.Services.ImageTranformService.? [?] - MESSAGE: 接收数据：frame=   78 fps=7.7 q=2.0 size=N/A time=00:00:10.43 bitrate=N/A speed=1.03x    
 2021-06-22 02:17:24,981 ERROR RY.TransferImagePro.Services.ImageTranformService.? [?] - MESSAGE: 接收数据：frame=   82 fps=7.7 q=2.0 size=N/A time=00:00:10.98 bitrate=N/A speed=1.03x    
 2021-06-22 02:17:25,482 ERROR RY.TransferImagePro.Services.ImageTranformService.? [?] - MESSAGE: 接收数据：frame=   85 fps=7.6 q=2.0 size=N/A time=00:00:11.40 bitrate=N/A speed=1.02x    
 2021-06-22 02:17:25,980 ERROR RY.TransferImagePro.Services.ImageTranformService.? [?] - MESSAGE: 接收数据：frame=   89 fps=7.6 q=2.0 size=N/A time=00:00:11.96 bitrate=N/A speed=1.02x    
 2021-06-22 02:17:26,482 ERROR RY.TransferImagePro.Services.ImageTranformService.? [?] - MESSAGE: 接收数据：frame=   92 fps=7.6 q=2.0 size=N/A time=00:00:12.38 bitrate=N/A speed=1.02x    
 2021-06-22 02:17:27,008 ERROR RY.TransferImagePro.Services.ImageTranformService.? [?] - MESSAGE: 接收数据：frame=   96 fps=7.6 q=2.0 size=N/A time=00:00:12.93 bitrate=N/A speed=1.02x    
 2021-06-22 02:17:27,489 ERROR RY.TransferImagePro.Services.ImageTranformService.? [?] - MESSAGE: 接收数据：frame=  100 fps=7.6 q=2.0 size=N/A time=00:00:13.48 bitrate=N/A speed=1.02x    
 2021-06-22 02:17:28,012 ERROR RY.TransferImagePro.Services.ImageTranformService.? [?] - MESSAGE: 接收数据：frame=  103 fps=7.5 q=2.0 size=N/A time=00:00:13.90 bitrate=N/A speed=1.01x    
 2021-06-22 02:17:28,505 ERROR RY.TransferImagePro.Services.ImageTranformService.? [?] - MESSAGE: 接收数据：frame=  107 fps=7.5 q=2.0 size=N/A time=00:00:14.46 bitrate=N/A speed=1.02x    
 2021-06-22 02:17:29,021 ERROR RY.TransferImagePro.Services.ImageTranformService.? [?] - MESSAGE: 接收数据：frame=  111 fps=7.5 q=2.0 size=N/A time=00:00:15.01 bitrate=N/A speed=1.02x    
 2021-06-22 02:17:29,540 ERROR RY.TransferImagePro.Services.ImageTranformService.? [?] - MESSAGE: 接收数据：frame=  114 fps=7.5 q=2.0 size=N/A time=00:00:15.43 bitrate=N/A speed=1.01x    
 2021-06-22 02:17:30,049 ERROR RY.TransferImagePro.Services.ImageTranformService.? [?] - MESSAGE: 接收数据：frame=  118 fps=7.5 q=2.0 size=N/A time=00:00:15.98 bitrate=N/A speed=1.01x    
 2021-06-22 02:17:30,552 ERROR RY.TransferImagePro.Services.ImageTranformService.? [?] - MESSAGE: 接收数据：frame=  122 fps=7.5 q=2.0 size=N/A time=00:00:16.55 bitrate=N/A speed=1.02x    
 2021-06-22 02:17:31,074 ERROR RY.TransferImagePro.Services.ImageTranformService.? [?] - MESSAGE: 接收数据：frame=  125 fps=7.5 q=2.0 size=N/A time=00:00:16.96 bitrate=N/A speed=1.01x    
 2021-06-22 02:17:31,589 ERROR RY.TransferImagePro.Services.ImageTranformService.? [?] - MESSAGE: 接收数据：frame=  129 fps=7.5 q=2.0 size=N/A time=00:00:17.51 bitrate=N/A speed=1.01x    
 2021-06-22 02:17:32,089 ERROR RY.TransferImagePro.Services.ImageTranformService.? [?] - MESSAGE: 接收数据：frame=  133 fps=7.5 q=2.0 size=N/A time=00:00:18.08 bitrate=N/A speed=1.02x    
 2021-06-22 02:17:32,593 ERROR RY.TransferImagePro.Services.ImageTranformService.? [?] - MESSAGE: 接收数据：frame=  136 fps=7.4 q=2.0 size=N/A time=00:00:18.50 bitrate=N/A speed=1.01x    
 2021-06-22 02:17:33,098 ERROR RY.TransferImagePro.Services.ImageTranformService.? [?] - MESSAGE: 接收数据：frame=  140 fps=7.4 q=2.0 size=N/A time=00:00:19.06 bitrate=N/A speed=1.01x    
 2021-06-22 02:17:33,618 ERROR RY.TransferImagePro.Services.ImageTranformService.? [?] - MESSAGE: 接收数据：frame=  144 fps=7.5 q=2.0 size=N/A time=00:00:19.61 bitrate=N/A speed=1.02x    
 2021-06-22 02:17:33,756 ERROR RY.TransferImagePro.Services.ImageTranformService.? [?] - MESSAGE: 接收数据：frame=  144 fps=7.4 q=2.0 Lsize=N/A time=00:00:19.90 bitrate=N/A speed=1.02x    
 2021-06-22 02:17:33,765 ERROR RY.TransferImagePro.Services.ImageTranformService.? [?] - MESSAGE: 接收数据：video:3025kB audio:0kB subtitle:0kB other streams:0kB global headers:0kB muxing overhead: unknown
 2021-06-22 02:17:34,302 ERROR RY.TransferImagePro.Services.ImageTranformService.? [?] - MESSAGE: 接收数据：ffmpeg version git-2020-04-12-f1894c2 Copyright (c) 2000-2020 the FFmpeg developers
 2021-06-22 02:17:34,308 ERROR RY.TransferImagePro.Services.ImageTranformService.? [?] - MESSAGE: 接收数据：  built with gcc 9.3.1 (GCC) 20200328
 2021-06-22 02:17:34,313 ERROR RY.TransferImagePro.Services.ImageTranformService.? [?] - MESSAGE: 接收数据：  configuration: --enable-gpl --enable-version3 --enable-sdl2 --enable-fontconfig --enable-gnutls --enable-iconv --enable-libass --enable-libdav1d --enable-libbluray --enable-libfreetype --enable-libmp3lame --enable-libopencore-amrnb --enable-libopencore-amrwb --enable-libopenjpeg --enable-libopus --enable-libshine --enable-libsnappy --enable-libsoxr --enable-libsrt --enable-libtheora --enable-libtwolame --enable-libvpx --enable-libwavpack --enable-libwebp --enable-libx264 --enable-libx265 --enable-libxml2 --enable-libzimg --enable-lzma --enable-zlib --enable-gmp --enable-libvidstab --enable-libvmaf --enable-libvorbis --enable-libvo-amrwbenc --enable-libmysofa --enable-libspeex --enable-libxvid --enable-libaom --disable-w32threads --enable-libmfx --enable-ffnvcodec --enable-cuda-llvm --enable-cuvid --enable-d3d11va --enable-nvenc --enable-nvdec --enable-dxva2 --enable-avisynth --enable-libopenmpt --enable-amf
 2021-06-22 02:17:34,319 ERROR RY.TransferImagePro.Services.ImageTranformService.? [?] - MESSAGE: 接收数据：  libavutil      56. 42.102 / 56. 42.102
 2021-06-22 02:17:34,324 ERROR RY.TransferImagePro.Services.ImageTranformService.? [?] - MESSAGE: 接收数据：  libavcodec     58. 78.102 / 58. 78.102
 2021-06-22 02:17:34,329 ERROR RY.TransferImagePro.Services.ImageTranformService.? [?] - MESSAGE: 接收数据：  libavformat    58. 42.100 / 58. 42.100
 2021-06-22 02:17:34,334 ERROR RY.TransferImagePro.Services.ImageTranformService.? [?] - MESSAGE: 接收数据：  libavdevice    58.  9.103 / 58.  9.103
 2021-06-22 02:17:34,339 ERROR RY.TransferImagePro.Services.ImageTranformService.? [?] - MESSAGE: 接收数据：  libavfilter     7. 77.101 /  7. 77.101
 2021-06-22 02:17:34,342 ERROR RY.TransferImagePro.Services.ImageTranformService.? [?] - MESSAGE: 接收数据：  libswscale      5.  6.101 /  5.  6.101
 2021-06-22 02:17:34,347 ERROR RY.TransferImagePro.Services.ImageTranformService.? [?] - MESSAGE: 接收数据：  libswresample   3.  6.100 /  3.  6.100
 2021-06-22 02:17:34,351 ERROR RY.TransferImagePro.Services.ImageTranformService.? [?] - MESSAGE: 接收数据：  libpostproc    55.  6.100 / 55.  6.100
 2021-06-22 02:17:35,672 ERROR RY.TransferImagePro.Services.ImageTranformService.? [?] - MESSAGE: 接收数据：Input #0, rtsp, from 'rtsp://192.168.1.168/0':
 2021-06-22 02:17:35,682 ERROR RY.TransferImagePro.Services.ImageTranformService.? [?] - MESSAGE: 接收数据：  Metadata:
 2021-06-22 02:17:35,692 ERROR RY.TransferImagePro.Services.ImageTranformService.? [?] - MESSAGE: 接收数据：    title           : Unnamed
 2021-06-22 02:17:35,699 ERROR RY.TransferImagePro.Services.ImageTranformService.? [?] - MESSAGE: 接收数据：    comment         : N/A
 2021-06-22 02:17:35,705 ERROR RY.TransferImagePro.Services.ImageTranformService.? [?] - MESSAGE: 接收数据：  Duration: N/A, start: 0.000000, bitrate: N/A
 2021-06-22 02:17:35,711 ERROR RY.TransferImagePro.Services.ImageTranformService.? [?] - MESSAGE: 接收数据：    Stream #0:0: Video: h264 (High), yuv420p(progressive), 1920x1080, 59.94 tbr, 90k tbn, 180k tbc
 2021-06-22 02:17:35,717 ERROR RY.TransferImagePro.Services.ImageTranformService.? [?] - MESSAGE: 接收数据：    Stream #0:1: Audio: aac (LC), 44100 Hz, stereo, fltp
 2021-06-22 02:17:35,721 ERROR RY.TransferImagePro.Services.ImageTranformService.? [?] - MESSAGE: 接收数据：Stream mapping:
 2021-06-22 02:17:35,727 ERROR RY.TransferImagePro.Services.ImageTranformService.? [?] - MESSAGE: 接收数据：  Stream #0:0 -> #0:0 (h264 (native) -> mjpeg (native))
 2021-06-22 02:17:35,733 ERROR RY.TransferImagePro.Services.ImageTranformService.? [?] - MESSAGE: 接收数据：Press [q] to stop, [?] for help
 2021-06-22 02:17:35,741 ERROR RY.TransferImagePro.Services.ImageTranformService.? [?] - MESSAGE: 接收数据：[swscaler @ 00000296316c3040] deprecated pixel format used, make sure you did set range correctly
 2021-06-22 02:17:35,747 ERROR RY.TransferImagePro.Services.ImageTranformService.? [?] - MESSAGE: 接收数据：Output #0, image2, to 'E:\RY.TransferImagePro\RY.TransferImagePro\Images\20210622021733789\%05d.jpeg':
 2021-06-22 02:17:35,754 ERROR RY.TransferImagePro.Services.ImageTranformService.? [?] - MESSAGE: 接收数据：  Metadata:
 2021-06-22 02:17:35,761 ERROR RY.TransferImagePro.Services.ImageTranformService.? [?] - MESSAGE: 接收数据：    title           : Unnamed
 2021-06-22 02:17:35,766 ERROR RY.TransferImagePro.Services.ImageTranformService.? [?] - MESSAGE: 接收数据：    comment         : N/A
 2021-06-22 02:17:35,772 ERROR RY.TransferImagePro.Services.ImageTranformService.? [?] - MESSAGE: 接收数据：    encoder         : Lavf58.42.100
 2021-06-22 02:17:35,778 ERROR RY.TransferImagePro.Services.ImageTranformService.? [?] - MESSAGE: 接收数据：    Stream #0:0: Video: mjpeg, yuvj420p(pc), 1920x1080, q=2-31, 200 kb/s, 59.94 fps, 59.94 tbn, 59.94 tbc
 2021-06-22 02:17:35,782 ERROR RY.TransferImagePro.Services.ImageTranformService.? [?] - MESSAGE: 接收数据：    Metadata:
 2021-06-22 02:17:35,786 ERROR RY.TransferImagePro.Services.ImageTranformService.? [?] - MESSAGE: 接收数据：      encoder         : Lavc58.78.102 mjpeg
 2021-06-22 02:17:35,790 ERROR RY.TransferImagePro.Services.ImageTranformService.? [?] - MESSAGE: 接收数据：    Side data:
 2021-06-22 02:17:35,794 ERROR RY.TransferImagePro.Services.ImageTranformService.? [?] - MESSAGE: 接收数据：      cpb: bitrate max/min/avg: 0/0/200000 buffer size: 0 vbv_delay: N/A
 2021-06-22 02:17:36,208 ERROR RY.TransferImagePro.Services.ImageTranformService.? [?] - MESSAGE: 接收数据：frame=    8 fps=0.0 q=2.0 size=N/A time=00:00:00.80 bitrate=N/A speed=1.53x    
 2021-06-22 02:17:36,709 ERROR RY.TransferImagePro.Services.ImageTranformService.? [?] - MESSAGE: 接收数据：frame=   12 fps= 12 q=2.0 size=N/A time=00:00:01.35 bitrate=N/A speed=1.31x    
 2021-06-22 02:17:37,223 ERROR RY.TransferImagePro.Services.ImageTranformService.? [?] - MESSAGE: 接收数据：frame=   16 fps= 10 q=2.0 size=N/A time=00:00:01.91 bitrate=N/A speed=1.24x    
 2021-06-22 02:17:37,729 ERROR RY.TransferImagePro.Services.ImageTranformService.? [?] - MESSAGE: 接收数据：frame=   19 fps=9.3 q=2.0 size=N/A time=00:00:02.33 bitrate=N/A speed=1.14x    
 2021-06-22 02:17:38,228 ERROR RY.TransferImagePro.Services.ImageTranformService.? [?] - MESSAGE: 接收数据：frame=   23 fps=9.0 q=2.0 size=N/A time=00:00:02.88 bitrate=N/A speed=1.13x    
 2021-06-22 02:17:38,754 ERROR RY.TransferImagePro.Services.ImageTranformService.? [?] - MESSAGE: 接收数据：frame=   27 fps=8.8 q=2.0 size=N/A time=00:00:03.43 bitrate=N/A speed=1.12x    
 2021-06-22 02:17:39,240 ERROR RY.TransferImagePro.Services.ImageTranformService.? [?] - MESSAGE: 接收数据：frame=   30 fps=8.4 q=2.0 size=N/A time=00:00:03.85 bitrate=N/A speed=1.08x    
 2021-06-22 02:17:39,738 ERROR RY.TransferImagePro.Services.ImageTranformService.? [?] - MESSAGE: 接收数据：frame=   34 fps=8.4 q=2.0 size=N/A time=00:00:04.42 bitrate=N/A speed=1.09x    
 2021-06-22 02:17:40,289 ERROR RY.TransferImagePro.Services.ImageTranformService.? [?] - MESSAGE: 接收数据：frame=   38 fps=8.3 q=2.0 size=N/A time=00:00:04.97 bitrate=N/A speed=1.09x    
 2021-06-22 02:17:40,766 ERROR RY.TransferImagePro.Services.ImageTranformService.? [?] - MESSAGE: 接收数据：frame=   41 fps=8.1 q=2.0 size=N/A time=00:00:05.38 bitrate=N/A speed=1.06x    
 2021-06-22 02:17:41,262 ERROR RY.TransferImagePro.Services.ImageTranformService.? [?] - MESSAGE: 接收数据：frame=   45 fps=8.1 q=2.0 size=N/A time=00:00:05.93 bitrate=N/A speed=1.06x    
 2021-06-22 02:17:41,793 ERROR RY.TransferImagePro.Services.ImageTranformService.? [?] - MESSAGE: 接收数据：frame=   49 fps=8.0 q=2.0 size=N/A time=00:00:06.50 bitrate=N/A speed=1.06x    
 2021-06-22 02:17:42,295 ERROR RY.TransferImagePro.Services.ImageTranformService.? [?] - MESSAGE: 接收数据：frame=   52 fps=7.8 q=2.0 size=N/A time=00:00:06.92 bitrate=N/A speed=1.05x    
 2021-06-22 02:17:42,805 ERROR RY.TransferImagePro.Services.ImageTranformService.? [?] - MESSAGE: 接收数据：frame=   56 fps=7.9 q=2.0 size=N/A time=00:00:07.47 bitrate=N/A speed=1.05x    
 2021-06-22 02:17:43,336 ERROR RY.TransferImagePro.Services.ImageTranformService.? [?] - MESSAGE: 接收数据：frame=   60 fps=7.8 q=2.0 size=N/A time=00:00:08.02 bitrate=N/A speed=1.05x    
 2021-06-22 02:17:43,864 ERROR RY.TransferImagePro.Services.ImageTranformService.? [?] - MESSAGE: 接收数据：frame=   63 fps=7.7 q=2.0 size=N/A time=00:00:08.44 bitrate=N/A speed=1.03x    
 2021-06-22 02:17:44,385 ERROR RY.TransferImagePro.Services.ImageTranformService.? [?] - MESSAGE: 接收数据：frame=   67 fps=7.7 q=2.0 size=N/A time=00:00:09.00 bitrate=N/A speed=1.04x    
 2021-06-22 02:17:44,864 ERROR RY.TransferImagePro.Services.ImageTranformService.? [?] - MESSAGE: 接收数据：frame=   71 fps=7.7 q=2.0 size=N/A time=00:00:09.55 bitrate=N/A speed=1.04x    
 2021-06-22 02:17:45,386 ERROR RY.TransferImagePro.Services.ImageTranformService.? [?] - MESSAGE: 接收数据：frame=   74 fps=7.6 q=2.0 size=N/A time=00:00:09.97 bitrate=N/A speed=1.03x    
 2021-06-22 02:17:45,878 ERROR RY.TransferImagePro.Services.ImageTranformService.? [?] - MESSAGE: 接收数据：frame=   78 fps=7.6 q=2.0 size=N/A time=00:00:10.52 bitrate=N/A speed=1.03x    
 2021-06-22 02:17:46,400 ERROR RY.TransferImagePro.Services.ImageTranformService.? [?] - MESSAGE: 接收数据：frame=   82 fps=7.6 q=2.0 size=N/A time=00:00:11.09 bitrate=N/A speed=1.03x    
 2021-06-22 02:17:46,961 ERROR RY.TransferImagePro.Services.ImageTranformService.? [?] - MESSAGE: 接收数据：frame=   86 fps=7.6 q=2.0 size=N/A time=00:00:11.64 bitrate=N/A speed=1.03x    
 2021-06-22 02:17:47,428 ERROR RY.TransferImagePro.Services.ImageTranformService.? [?] - MESSAGE: 接收数据：frame=   89 fps=7.6 q=2.0 size=N/A time=00:00:12.06 bitrate=N/A speed=1.03x    
 2021-06-22 02:17:47,942 ERROR RY.TransferImagePro.Services.ImageTranformService.? [?] - MESSAGE: 接收数据：frame=   93 fps=7.6 q=2.0 size=N/A time=00:00:12.61 bitrate=N/A speed=1.03x    
 2021-06-22 02:17:48,431 ERROR RY.TransferImagePro.Services.ImageTranformService.? [?] - MESSAGE: 接收数据：frame=   96 fps=7.5 q=2.0 size=N/A time=00:00:13.02 bitrate=N/A speed=1.02x    
 2021-06-22 02:17:48,964 ERROR RY.TransferImagePro.Services.ImageTranformService.? [?] - MESSAGE: 接收数据：frame=  100 fps=7.5 q=2.0 size=N/A time=00:00:13.59 bitrate=N/A speed=1.02x    
 2021-06-22 02:17:49,479 ERROR RY.TransferImagePro.Services.ImageTranformService.? [?] - MESSAGE: 接收数据：frame=  104 fps=7.5 q=2.0 size=N/A time=00:00:14.14 bitrate=N/A speed=1.03x    
 2021-06-22 02:17:50,015 ERROR RY.TransferImagePro.Services.ImageTranformService.? [?] - MESSAGE: 接收数据：frame=  108 fps=7.6 q=2.0 size=N/A time=00:00:14.69 bitrate=N/A speed=1.03x    
 2021-06-22 02:17:50,482 ERROR RY.TransferImagePro.Services.ImageTranformService.? [?] - MESSAGE: 接收数据：frame=  111 fps=7.5 q=2.0 size=N/A time=00:00:15.11 bitrate=N/A speed=1.02x    
 2021-06-22 02:17:50,987 ERROR RY.TransferImagePro.Services.ImageTranformService.? [?] - MESSAGE: 接收数据：frame=  115 fps=7.5 q=2.0 size=N/A time=00:00:15.68 bitrate=N/A speed=1.02x    
 2021-06-22 02:17:51,523 ERROR RY.TransferImagePro.Services.ImageTranformService.? [?] - MESSAGE: 接收数据：frame=  119 fps=7.5 q=2.0 size=N/A time=00:00:16.23 bitrate=N/A speed=1.03x    
 2021-06-22 02:17:52,014 ERROR RY.TransferImagePro.Services.ImageTranformService.? [?] - MESSAGE: 接收数据：frame=  122 fps=7.5 q=2.0 size=N/A time=00:00:16.63 bitrate=N/A speed=1.02x    
 2021-06-22 02:17:52,516 ERROR RY.TransferImagePro.Services.ImageTranformService.? [?] - MESSAGE: 接收数据：frame=  126 fps=7.5 q=2.0 size=N/A time=00:00:17.18 bitrate=N/A speed=1.02x    
 2021-06-22 02:17:53,024 ERROR RY.TransferImagePro.Services.ImageTranformService.? [?] - MESSAGE: 接收数据：frame=  129 fps=7.4 q=2.0 size=N/A time=00:00:17.60 bitrate=N/A speed=1.02x    
 2021-06-22 02:17:53,522 ERROR RY.TransferImagePro.Services.ImageTranformService.? [?] - MESSAGE: 接收数据：frame=  133 fps=7.5 q=2.0 size=N/A time=00:00:18.16 bitrate=N/A speed=1.02x    
 2021-06-22 02:17:54,048 ERROR RY.TransferImagePro.Services.ImageTranformService.? [?] - MESSAGE: 接收数据：frame=  137 fps=7.5 q=2.0 size=N/A time=00:00:18.71 bitrate=N/A speed=1.02x    
 2021-06-22 02:17:54,537 ERROR RY.TransferImagePro.Services.ImageTranformService.? [?] - MESSAGE: 接收数据：frame=  140 fps=7.4 q=2.0 size=N/A time=00:00:19.13 bitrate=N/A speed=1.01x    
 2021-06-22 02:17:55,022 ERROR RY.TransferImagePro.Services.ImageTranformService.? [?] - MESSAGE: 接收数据：frame=  144 fps=7.4 q=2.0 size=N/A time=00:00:19.68 bitrate=N/A speed=1.02x    
 2021-06-22 02:17:55,162 ERROR RY.TransferImagePro.Services.ImageTranformService.? [?] - MESSAGE: 接收数据：frame=  144 fps=7.4 q=2.0 Lsize=N/A time=00:00:19.96 bitrate=N/A speed=1.03x    
 2021-06-22 02:17:55,168 ERROR RY.TransferImagePro.Services.ImageTranformService.? [?] - MESSAGE: 接收数据：video:3034kB audio:0kB subtitle:0kB other streams:0kB global headers:0kB muxing overhead: unknown
 2021-06-22 02:17:55,864 ERROR RY.TransferImagePro.Services.ImageTranformService.? [?] - MESSAGE: 接收数据：ffmpeg version git-2020-04-12-f1894c2 Copyright (c) 2000-2020 the FFmpeg developers
 2021-06-22 02:17:55,869 ERROR RY.TransferImagePro.Services.ImageTranformService.? [?] - MESSAGE: 接收数据：  built with gcc 9.3.1 (GCC) 20200328
 2021-06-22 02:17:55,875 ERROR RY.TransferImagePro.Services.ImageTranformService.? [?] - MESSAGE: 接收数据：  configuration: --enable-gpl --enable-version3 --enable-sdl2 --enable-fontconfig --enable-gnutls --enable-iconv --enable-libass --enable-libdav1d --enable-libbluray --enable-libfreetype --enable-libmp3lame --enable-libopencore-amrnb --enable-libopencore-amrwb --enable-libopenjpeg --enable-libopus --enable-libshine --enable-libsnappy --enable-libsoxr --enable-libsrt --enable-libtheora --enable-libtwolame --enable-libvpx --enable-libwavpack --enable-libwebp --enable-libx264 --enable-libx265 --enable-libxml2 --enable-libzimg --enable-lzma --enable-zlib --enable-gmp --enable-libvidstab --enable-libvmaf --enable-libvorbis --enable-libvo-amrwbenc --enable-libmysofa --enable-libspeex --enable-libxvid --enable-libaom --disable-w32threads --enable-libmfx --enable-ffnvcodec --enable-cuda-llvm --enable-cuvid --enable-d3d11va --enable-nvenc --enable-nvdec --enable-dxva2 --enable-avisynth --enable-libopenmpt --enable-amf
 2021-06-22 02:17:55,880 ERROR RY.TransferImagePro.Services.ImageTranformService.? [?] - MESSAGE: 接收数据：  libavutil      56. 42.102 / 56. 42.102
 2021-06-22 02:17:55,885 ERROR RY.TransferImagePro.Services.ImageTranformService.? [?] - MESSAGE: 接收数据：  libavcodec     58. 78.102 / 58. 78.102
 2021-06-22 02:17:55,890 ERROR RY.TransferImagePro.Services.ImageTranformService.? [?] - MESSAGE: 接收数据：  libavformat    58. 42.100 / 58. 42.100
 2021-06-22 02:17:55,894 ERROR RY.TransferImagePro.Services.ImageTranformService.? [?] - MESSAGE: 接收数据：  libavdevice    58.  9.103 / 58.  9.103
 2021-06-22 02:17:55,899 ERROR RY.TransferImagePro.Services.ImageTranformService.? [?] - MESSAGE: 接收数据：  libavfilter     7. 77.101 /  7. 77.101
 2021-06-22 02:17:55,904 ERROR RY.TransferImagePro.Services.ImageTranformService.? [?] - MESSAGE: 接收数据：  libswscale      5.  6.101 /  5.  6.101
 2021-06-22 02:17:55,909 ERROR RY.TransferImagePro.Services.ImageTranformService.? [?] - MESSAGE: 接收数据：  libswresample   3.  6.100 /  3.  6.100
 2021-06-22 02:17:55,913 ERROR RY.TransferImagePro.Services.ImageTranformService.? [?] - MESSAGE: 接收数据：  libpostproc    55.  6.100 / 55.  6.100
 2021-06-22 02:17:57,234 ERROR RY.TransferImagePro.Services.ImageTranformService.? [?] - MESSAGE: 接收数据：Input #0, rtsp, from 'rtsp://192.168.1.168/0':
 2021-06-22 02:17:57,248 ERROR RY.TransferImagePro.Services.ImageTranformService.? [?] - MESSAGE: 接收数据：  Metadata:
 2021-06-22 02:17:57,261 ERROR RY.TransferImagePro.Services.ImageTranformService.? [?] - MESSAGE: 接收数据：    title           : Unnamed
 2021-06-22 02:17:57,274 ERROR RY.TransferImagePro.Services.ImageTranformService.? [?] - MESSAGE: 接收数据：    comment         : N/A
 2021-06-22 02:17:57,280 ERROR RY.TransferImagePro.Services.ImageTranformService.? [?] - MESSAGE: 接收数据：  Duration: N/A, start: 0.016678, bitrate: N/A
 2021-06-22 02:17:57,286 ERROR RY.TransferImagePro.Services.ImageTranformService.? [?] - MESSAGE: 接收数据：    Stream #0:0: Video: h264 (High), yuv420p(progressive), 1920x1080, 60 tbr, 90k tbn, 180k tbc
 2021-06-22 02:17:57,291 ERROR RY.TransferImagePro.Services.ImageTranformService.? [?] - MESSAGE: 接收数据：    Stream #0:1: Audio: aac (LC), 44100 Hz, stereo, fltp
 2021-06-22 02:17:57,296 ERROR RY.TransferImagePro.Services.ImageTranformService.? [?] - MESSAGE: 接收数据：Stream mapping:
 2021-06-22 02:17:57,302 ERROR RY.TransferImagePro.Services.ImageTranformService.? [?] - MESSAGE: 接收数据：  Stream #0:0 -> #0:0 (h264 (native) -> mjpeg (native))
 2021-06-22 02:17:57,308 ERROR RY.TransferImagePro.Services.ImageTranformService.? [?] - MESSAGE: 接收数据：Press [q] to stop, [?] for help
 2021-06-22 02:17:57,314 ERROR RY.TransferImagePro.Services.ImageTranformService.? [?] - MESSAGE: 接收数据：[swscaler @ 00000231ad534040] deprecated pixel format used, make sure you did set range correctly
 2021-06-22 02:17:57,320 ERROR RY.TransferImagePro.Services.ImageTranformService.? [?] - MESSAGE: 接收数据：Output #0, image2, to 'E:\RY.TransferImagePro\RY.TransferImagePro\Images\20210622021755193\%05d.jpeg':
 2021-06-22 02:17:57,326 ERROR RY.TransferImagePro.Services.ImageTranformService.? [?] - MESSAGE: 接收数据：  Metadata:
 2021-06-22 02:17:57,332 ERROR RY.TransferImagePro.Services.ImageTranformService.? [?] - MESSAGE: 接收数据：    title           : Unnamed
 2021-06-22 02:17:57,339 ERROR RY.TransferImagePro.Services.ImageTranformService.? [?] - MESSAGE: 接收数据：    comment         : N/A
 2021-06-22 02:17:57,344 ERROR RY.TransferImagePro.Services.ImageTranformService.? [?] - MESSAGE: 接收数据：    encoder         : Lavf58.42.100
 2021-06-22 02:17:57,348 ERROR RY.TransferImagePro.Services.ImageTranformService.? [?] - MESSAGE: 接收数据：    Stream #0:0: Video: mjpeg, yuvj420p(pc), 1920x1080, q=2-31, 200 kb/s, 60 fps, 60 tbn, 60 tbc
 2021-06-22 02:17:57,353 ERROR RY.TransferImagePro.Services.ImageTranformService.? [?] - MESSAGE: 接收数据：    Metadata:
 2021-06-22 02:17:57,358 ERROR RY.TransferImagePro.Services.ImageTranformService.? [?] - MESSAGE: 接收数据：      encoder         : Lavc58.78.102 mjpeg
 2021-06-22 02:17:57,363 ERROR RY.TransferImagePro.Services.ImageTranformService.? [?] - MESSAGE: 接收数据：    Side data:
 2021-06-22 02:17:57,366 ERROR RY.TransferImagePro.Services.ImageTranformService.? [?] - MESSAGE: 接收数据：      cpb: bitrate max/min/avg: 0/0/200000 buffer size: 0 vbv_delay: N/A
 2021-06-22 02:17:57,733 ERROR RY.TransferImagePro.Services.ImageTranformService.? [?] - MESSAGE: 接收数据：frame=    8 fps=0.0 q=2.0 size=N/A time=00:00:00.75 bitrate=N/A speed=1.49x    
 2021-06-22 02:17:58,270 ERROR RY.TransferImagePro.Services.ImageTranformService.? [?] - MESSAGE: 接收数据：frame=   12 fps= 12 q=2.0 size=N/A time=00:00:01.30 bitrate=N/A speed=1.28x    
 2021-06-22 02:17:58,769 ERROR RY.TransferImagePro.Services.ImageTranformService.? [?] - MESSAGE: 接收数据：frame=   16 fps= 11 q=2.0 size=N/A time=00:00:01.85 bitrate=N/A speed=1.22x    
 2021-06-22 02:17:59,275 ERROR RY.TransferImagePro.Services.ImageTranformService.? [?] - MESSAGE: 接收数据：frame=   19 fps=9.4 q=2.0 size=N/A time=00:00:02.26 bitrate=N/A speed=1.12x    
 2021-06-22 02:17:59,768 ERROR RY.TransferImagePro.Services.ImageTranformService.? [?] - MESSAGE: 接收数据：frame=   23 fps=9.1 q=2.0 size=N/A time=00:00:02.83 bitrate=N/A speed=1.12x    
 2021-06-22 02:18:00,294 ERROR RY.TransferImagePro.Services.ImageTranformService.? [?] - MESSAGE: 接收数据：frame=   27 fps=8.9 q=2.0 size=N/A time=00:00:03.38 bitrate=N/A speed=1.12x    
 2021-06-22 02:18:00,770 ERROR RY.TransferImagePro.Services.ImageTranformService.? [?] - MESSAGE: 接收数据：frame=   30 fps=8.5 q=2.0 size=N/A time=00:00:03.80 bitrate=N/A speed=1.07x    
 2021-06-22 02:18:01,302 ERROR RY.TransferImagePro.Services.ImageTranformService.? [?] - MESSAGE: 接收数据：frame=   34 fps=8.4 q=2.0 size=N/A time=00:00:04.35 bitrate=N/A speed=1.07x    
 2021-06-22 02:18:01,818 ERROR RY.TransferImagePro.Services.ImageTranformService.? [?] - MESSAGE: 接收数据：frame=   38 fps=8.3 q=2.0 size=N/A time=00:00:05.11 bitrate=N/A speed=1.12x    
 2021-06-22 02:18:02,301 ERROR RY.TransferImagePro.Services.ImageTranformService.? [?] - MESSAGE: 接收数据：frame=   41 fps=8.1 q=2.0 size=N/A time=00:00:05.53 bitrate=N/A speed=1.09x    
 2021-06-22 02:18:02,832 ERROR RY.TransferImagePro.Services.ImageTranformService.? [?] - MESSAGE: 接收数据：frame=   45 fps=8.1 q=2.0 size=N/A time=00:00:06.08 bitrate=N/A speed=1.09x    
 2021-06-22 02:18:03,343 ERROR RY.TransferImagePro.Services.ImageTranformService.? [?] - MESSAGE: 接收数据：frame=   49 fps=8.0 q=2.0 size=N/A time=00:00:06.63 bitrate=N/A speed=1.09x    
 2021-06-22 02:18:03,857 ERROR RY.TransferImagePro.Services.ImageTranformService.? [?] - MESSAGE: 接收数据：frame=   52 fps=7.9 q=2.0 size=N/A time=00:00:07.05 bitrate=N/A speed=1.07x    
 2021-06-22 02:18:04,355 ERROR RY.TransferImagePro.Services.ImageTranformService.? [?] - MESSAGE: 接收数据：frame=   56 fps=7.9 q=2.0 size=N/A time=00:00:07.61 bitrate=N/A speed=1.07x    
 2021-06-22 02:18:04,877 ERROR RY.TransferImagePro.Services.ImageTranformService.? [?] - MESSAGE: 接收数据：frame=   60 fps=7.8 q=2.0 size=N/A time=00:00:08.16 bitrate=N/A speed=1.07x    
 2021-06-22 02:18:05,391 ERROR RY.TransferImagePro.Services.ImageTranformService.? [?] - MESSAGE: 接收数据：frame=   63 fps=7.7 q=2.0 size=N/A time=00:00:08.58 bitrate=N/A speed=1.05x    
 2021-06-22 02:18:05,911 ERROR RY.TransferImagePro.Services.ImageTranformService.? [?] - MESSAGE: 接收数据：frame=   67 fps=7.7 q=2.0 size=N/A time=00:00:09.13 bitrate=N/A speed=1.05x    
 2021-06-22 02:18:06,412 ERROR RY.TransferImagePro.Services.ImageTranformService.? [?] - MESSAGE: 接收数据：frame=   71 fps=7.7 q=2.0 size=N/A time=00:00:09.70 bitrate=N/A speed=1.06x    
 2021-06-22 02:18:06,943 ERROR RY.TransferImagePro.Services.ImageTranformService.? [?] - MESSAGE: 接收数据：frame=   75 fps=7.7 q=2.0 size=N/A time=00:00:10.25 bitrate=N/A speed=1.06x    
 2021-06-22 02:18:07,445 ERROR RY.TransferImagePro.Services.ImageTranformService.? [?] - MESSAGE: 接收数据：frame=   78 fps=7.7 q=2.0 size=N/A time=00:00:10.66 bitrate=N/A speed=1.05x    
 2021-06-22 02:18:07,938 ERROR RY.TransferImagePro.Services.ImageTranformService.? [?] - MESSAGE: 接收数据：frame=   82 fps=7.7 q=2.0 size=N/A time=00:00:11.21 bitrate=N/A speed=1.05x    
 2021-06-22 02:18:08,448 ERROR RY.TransferImagePro.Services.ImageTranformService.? [?] - MESSAGE: 接收数据：frame=   85 fps=7.6 q=2.0 size=N/A time=00:00:11.63 bitrate=N/A speed=1.04x    
 2021-06-22 02:18:08,973 ERROR RY.TransferImagePro.Services.ImageTranformService.? [?] - MESSAGE: 接收数据：frame=   89 fps=7.6 q=2.0 size=N/A time=00:00:12.20 bitrate=N/A speed=1.04x    
 2021-06-22 02:18:09,454 ERROR RY.TransferImagePro.Services.ImageTranformService.? [?] - MESSAGE: 接收数据：frame=   93 fps=7.6 q=2.0 size=N/A time=00:00:12.75 bitrate=N/A speed=1.04x    
 2021-06-22 02:18:09,974 ERROR RY.TransferImagePro.Services.ImageTranformService.? [?] - MESSAGE: 接收数据：frame=   96 fps=7.5 q=2.0 size=N/A time=00:00:13.16 bitrate=N/A speed=1.04x    
 2021-06-22 02:18:10,490 ERROR RY.TransferImagePro.Services.ImageTranformService.? [?] - MESSAGE: 接收数据：frame=  100 fps=7.6 q=2.0 size=N/A time=00:00:13.71 bitrate=N/A speed=1.04x    
 2021-06-22 02:18:10,994 ERROR RY.TransferImagePro.Services.ImageTranformService.? [?] - MESSAGE: 接收数据：frame=  104 fps=7.6 q=2.0 size=N/A time=00:00:14.28 bitrate=N/A speed=1.04x    
 2021-06-22 02:18:11,493 ERROR RY.TransferImagePro.Services.ImageTranformService.? [?] - MESSAGE: 接收数据：frame=  107 fps=7.5 q=2.0 size=N/A time=00:00:14.70 bitrate=N/A speed=1.03x    
 2021-06-22 02:18:11,996 ERROR RY.TransferImagePro.Services.ImageTranformService.? [?] - MESSAGE: 接收数据：frame=  111 fps=7.5 q=2.0 size=N/A time=00:00:15.25 bitrate=N/A speed=1.03x    
 2021-06-22 02:18:12,517 ERROR RY.TransferImagePro.Services.ImageTranformService.? [?] - MESSAGE: 接收数据：frame=  115 fps=7.5 q=2.0 size=N/A time=00:00:15.80 bitrate=N/A speed=1.03x    
 2021-06-22 02:18:13,034 ERROR RY.TransferImagePro.Services.ImageTranformService.? [?] - MESSAGE: 接收数据：frame=  118 fps=7.5 q=2.0 size=N/A time=00:00:16.21 bitrate=N/A speed=1.03x    
 2021-06-22 02:18:13,527 ERROR RY.TransferImagePro.Services.ImageTranformService.? [?] - MESSAGE: 接收数据：frame=  122 fps=7.5 q=2.0 size=N/A time=00:00:16.78 bitrate=N/A speed=1.03x    
 2021-06-22 02:18:14,030 ERROR RY.TransferImagePro.Services.ImageTranformService.? [?] - MESSAGE: 接收数据：frame=  126 fps=7.5 q=2.0 size=N/A time=00:00:17.33 bitrate=N/A speed=1.03x    
 2021-06-22 02:18:14,535 ERROR RY.TransferImagePro.Services.ImageTranformService.? [?] - MESSAGE: 接收数据：frame=  129 fps=7.5 q=2.0 size=N/A time=00:00:17.75 bitrate=N/A speed=1.03x    
 2021-06-22 02:18:15,037 ERROR RY.TransferImagePro.Services.ImageTranformService.? [?] - MESSAGE: 接收数据：frame=  133 fps=7.5 q=2.0 size=N/A time=00:00:18.30 bitrate=N/A speed=1.03x    
 2021-06-22 02:18:15,552 ERROR RY.TransferImagePro.Services.ImageTranformService.? [?] - MESSAGE: 接收数据：frame=  136 fps=7.4 q=2.0 size=N/A time=00:00:18.71 bitrate=N/A speed=1.02x    
 2021-06-22 02:18:16,061 ERROR RY.TransferImagePro.Services.ImageTranformService.? [?] - MESSAGE: 接收数据：frame=  140 fps=7.4 q=2.0 size=N/A time=00:00:19.28 bitrate=N/A speed=1.02x    
 2021-06-22 02:18:16,548 ERROR RY.TransferImagePro.Services.ImageTranformService.? [?] - MESSAGE: 接收数据：frame=  143 fps=7.4 q=2.0 Lsize=N/A time=00:00:19.96 bitrate=N/A speed=1.03x    
 2021-06-22 02:18:16,559 ERROR RY.TransferImagePro.Services.ImageTranformService.? [?] - MESSAGE: 接收数据：video:3001kB audio:0kB subtitle:0kB other streams:0kB global headers:0kB muxing overhead: unknown
 2021-06-22 02:18:17,119 ERROR RY.TransferImagePro.Services.ImageTranformService.? [?] - MESSAGE: 接收数据：ffmpeg version git-2020-04-12-f1894c2 Copyright (c) 2000-2020 the FFmpeg developers
 2021-06-22 02:18:17,124 ERROR RY.TransferImagePro.Services.ImageTranformService.? [?] - MESSAGE: 接收数据：  built with gcc 9.3.1 (GCC) 20200328
 2021-06-22 02:18:17,128 ERROR RY.TransferImagePro.Services.ImageTranformService.? [?] - MESSAGE: 接收数据：  configuration: --enable-gpl --enable-version3 --enable-sdl2 --enable-fontconfig --enable-gnutls --enable-iconv --enable-libass --enable-libdav1d --enable-libbluray --enable-libfreetype --enable-libmp3lame --enable-libopencore-amrnb --enable-libopencore-amrwb --enable-libopenjpeg --enable-libopus --enable-libshine --enable-libsnappy --enable-libsoxr --enable-libsrt --enable-libtheora --enable-libtwolame --enable-libvpx --enable-libwavpack --enable-libwebp --enable-libx264 --enable-libx265 --enable-libxml2 --enable-libzimg --enable-lzma --enable-zlib --enable-gmp --enable-libvidstab --enable-libvmaf --enable-libvorbis --enable-libvo-amrwbenc --enable-libmysofa --enable-libspeex --enable-libxvid --enable-libaom --disable-w32threads --enable-libmfx --enable-ffnvcodec --enable-cuda-llvm --enable-cuvid --enable-d3d11va --enable-nvenc --enable-nvdec --enable-dxva2 --enable-avisynth --enable-libopenmpt --enable-amf
 2021-06-22 02:18:17,134 ERROR RY.TransferImagePro.Services.ImageTranformService.? [?] - MESSAGE: 接收数据：  libavutil      56. 42.102 / 56. 42.102
 2021-06-22 02:18:17,140 ERROR RY.TransferImagePro.Services.ImageTranformService.? [?] - MESSAGE: 接收数据：  libavcodec     58. 78.102 / 58. 78.102
 2021-06-22 02:18:17,144 ERROR RY.TransferImagePro.Services.ImageTranformService.? [?] - MESSAGE: 接收数据：  libavformat    58. 42.100 / 58. 42.100
 2021-06-22 02:18:17,149 ERROR RY.TransferImagePro.Services.ImageTranformService.? [?] - MESSAGE: 接收数据：  libavdevice    58.  9.103 / 58.  9.103
 2021-06-22 02:18:17,154 ERROR RY.TransferImagePro.Services.ImageTranformService.? [?] - MESSAGE: 接收数据：  libavfilter     7. 77.101 /  7. 77.101
 2021-06-22 02:18:17,158 ERROR RY.TransferImagePro.Services.ImageTranformService.? [?] - MESSAGE: 接收数据：  libswscale      5.  6.101 /  5.  6.101
 2021-06-22 02:18:17,162 ERROR RY.TransferImagePro.Services.ImageTranformService.? [?] - MESSAGE: 接收数据：  libswresample   3.  6.100 /  3.  6.100
 2021-06-22 02:18:17,166 ERROR RY.TransferImagePro.Services.ImageTranformService.? [?] - MESSAGE: 接收数据：  libpostproc    55.  6.100 / 55.  6.100
 2021-06-22 02:18:18,492 ERROR RY.TransferImagePro.Services.ImageTranformService.? [?] - MESSAGE: 接收数据：Input #0, rtsp, from 'rtsp://192.168.1.168/0':
 2021-06-22 02:18:18,513 ERROR RY.TransferImagePro.Services.ImageTranformService.? [?] - MESSAGE: 接收数据：  Metadata:
 2021-06-22 02:18:18,528 ERROR RY.TransferImagePro.Services.ImageTranformService.? [?] - MESSAGE: 接收数据：    title           : Unnamed
 2021-06-22 02:18:18,535 ERROR RY.TransferImagePro.Services.ImageTranformService.? [?] - MESSAGE: 接收数据：    comment         : N/A
 2021-06-22 02:18:18,540 ERROR RY.TransferImagePro.Services.ImageTranformService.? [?] - MESSAGE: 接收数据：  Duration: N/A, start: 0.000000, bitrate: N/A
 2021-06-22 02:18:18,546 ERROR RY.TransferImagePro.Services.ImageTranformService.? [?] - MESSAGE: 接收数据：    Stream #0:0: Video: h264 (High), yuv420p(progressive), 1920x1080, 60 tbr, 90k tbn, 180k tbc
 2021-06-22 02:18:18,551 ERROR RY.TransferImagePro.Services.ImageTranformService.? [?] - MESSAGE: 接收数据：    Stream #0:1: Audio: aac (LC), 44100 Hz, stereo, fltp
 2021-06-22 02:18:18,556 ERROR RY.TransferImagePro.Services.ImageTranformService.? [?] - MESSAGE: 接收数据：Stream mapping:
 2021-06-22 02:18:18,562 ERROR RY.TransferImagePro.Services.ImageTranformService.? [?] - MESSAGE: 接收数据：  Stream #0:0 -> #0:0 (h264 (native) -> mjpeg (native))
 2021-06-22 02:18:18,567 ERROR RY.TransferImagePro.Services.ImageTranformService.? [?] - MESSAGE: 接收数据：Press [q] to stop, [?] for help
 2021-06-22 02:18:18,575 ERROR RY.TransferImagePro.Services.ImageTranformService.? [?] - MESSAGE: 接收数据：[swscaler @ 000001ab95b0e000] deprecated pixel format used, make sure you did set range correctly
 2021-06-22 02:18:18,580 ERROR RY.TransferImagePro.Services.ImageTranformService.? [?] - MESSAGE: 接收数据：Output #0, image2, to 'E:\RY.TransferImagePro\RY.TransferImagePro\Images\20210622021816583\%05d.jpeg':
 2021-06-22 02:18:18,587 ERROR RY.TransferImagePro.Services.ImageTranformService.? [?] - MESSAGE: 接收数据：  Metadata:
 2021-06-22 02:18:18,595 ERROR RY.TransferImagePro.Services.ImageTranformService.? [?] - MESSAGE: 接收数据：    title           : Unnamed
 2021-06-22 02:18:18,600 ERROR RY.TransferImagePro.Services.ImageTranformService.? [?] - MESSAGE: 接收数据：    comment         : N/A
 2021-06-22 02:18:18,607 ERROR RY.TransferImagePro.Services.ImageTranformService.? [?] - MESSAGE: 接收数据：    encoder         : Lavf58.42.100
 2021-06-22 02:18:18,612 ERROR RY.TransferImagePro.Services.ImageTranformService.? [?] - MESSAGE: 接收数据：    Stream #0:0: Video: mjpeg, yuvj420p(pc), 1920x1080, q=2-31, 200 kb/s, 60 fps, 60 tbn, 60 tbc
 2021-06-22 02:18:18,617 ERROR RY.TransferImagePro.Services.ImageTranformService.? [?] - MESSAGE: 接收数据：    Metadata:
 2021-06-22 02:18:18,621 ERROR RY.TransferImagePro.Services.ImageTranformService.? [?] - MESSAGE: 接收数据：      encoder         : Lavc58.78.102 mjpeg
 2021-06-22 02:18:18,624 ERROR RY.TransferImagePro.Services.ImageTranformService.? [?] - MESSAGE: 接收数据：    Side data:
 2021-06-22 02:18:18,628 ERROR RY.TransferImagePro.Services.ImageTranformService.? [?] - MESSAGE: 接收数据：      cpb: bitrate max/min/avg: 0/0/200000 buffer size: 0 vbv_delay: N/A
 2021-06-22 02:18:19,026 ERROR RY.TransferImagePro.Services.ImageTranformService.? [?] - MESSAGE: 接收数据：frame=    8 fps=0.0 q=2.0 size=N/A time=00:00:00.76 bitrate=N/A speed= 1.5x    
 2021-06-22 02:18:19,535 ERROR RY.TransferImagePro.Services.ImageTranformService.? [?] - MESSAGE: 接收数据：frame=   12 fps= 12 q=2.0 size=N/A time=00:00:01.31 bitrate=N/A speed= 1.3x    
 2021-06-22 02:18:20,028 ERROR RY.TransferImagePro.Services.ImageTranformService.? [?] - MESSAGE: 接收数据：frame=   16 fps= 10 q=2.0 size=N/A time=00:00:01.86 bitrate=N/A speed=1.22x    
 2021-06-22 02:18:20,545 ERROR RY.TransferImagePro.Services.ImageTranformService.? [?] - MESSAGE: 接收数据：frame=   19 fps=9.3 q=2.0 size=N/A time=00:00:02.28 bitrate=N/A speed=1.12x    
 2021-06-22 02:18:21,027 ERROR RY.TransferImagePro.Services.ImageTranformService.? [?] - MESSAGE: 接收数据：frame=   23 fps=9.1 q=2.0 size=N/A time=00:00:02.85 bitrate=N/A speed=1.12x    
 2021-06-22 02:18:21,549 ERROR RY.TransferImagePro.Services.ImageTranformService.? [?] - MESSAGE: 接收数据：frame=   27 fps=8.8 q=2.0 size=N/A time=00:00:03.40 bitrate=N/A speed=1.11x    
 2021-06-22 02:18:22,092 ERROR RY.TransferImagePro.Services.ImageTranformService.? [?] - MESSAGE: 接收数据：frame=   31 fps=8.6 q=2.0 size=N/A time=00:00:03.95 bitrate=N/A speed= 1.1x    
 2021-06-22 02:18:22,615 ERROR RY.TransferImagePro.Services.ImageTranformService.? [?] - MESSAGE: 接收数据：frame=   34 fps=8.3 q=2.0 size=N/A time=00:00:04.36 bitrate=N/A speed=1.06x    
 2021-06-22 02:18:23,126 ERROR RY.TransferImagePro.Services.ImageTranformService.? [?] - MESSAGE: 接收数据：frame=   38 fps=8.2 q=2.0 size=N/A time=00:00:04.93 bitrate=N/A speed=1.07x    
 2021-06-22 02:18:23,623 ERROR RY.TransferImagePro.Services.ImageTranformService.? [?] - MESSAGE: 接收数据：frame=   42 fps=8.2 q=2.0 size=N/A time=00:00:05.48 bitrate=N/A speed=1.07x    
 2021-06-22 02:18:24,150 ERROR RY.TransferImagePro.Services.ImageTranformService.? [?] - MESSAGE: 接收数据：frame=   45 fps=8.0 q=2.0 size=N/A time=00:00:05.90 bitrate=N/A speed=1.04x    
 2021-06-22 02:18:24,663 ERROR RY.TransferImagePro.Services.ImageTranformService.? [?] - MESSAGE: 接收数据：frame=   49 fps=8.0 q=2.0 size=N/A time=00:00:06.45 bitrate=N/A speed=1.05x    
 2021-06-22 02:18:25,179 ERROR RY.TransferImagePro.Services.ImageTranformService.? [?] - MESSAGE: 接收数据：frame=   53 fps=7.9 q=2.0 size=N/A time=00:00:07.01 bitrate=N/A speed=1.05x    
 2021-06-22 02:18:25,726 ERROR RY.TransferImagePro.Services.ImageTranformService.? [?] - MESSAGE: 接收数据：frame=   57 fps=7.9 q=2.0 size=N/A time=00:00:07.56 bitrate=N/A speed=1.05x    
 2021-06-22 02:18:26,206 ERROR RY.TransferImagePro.Services.ImageTranformService.? [?] - MESSAGE: 接收数据：frame=   60 fps=7.8 q=2.0 size=N/A time=00:00:07.98 bitrate=N/A speed=1.04x    
 2021-06-22 02:18:26,726 ERROR RY.TransferImagePro.Services.ImageTranformService.? [?] - MESSAGE: 接收数据：frame=   64 fps=7.8 q=2.0 size=N/A time=00:00:08.53 bitrate=N/A speed=1.04x    
 2021-06-22 02:18:27,253 ERROR RY.TransferImagePro.Services.ImageTranformService.? [?] - MESSAGE: 接收数据：frame=   68 fps=7.8 q=2.0 size=N/A time=00:00:09.10 bitrate=N/A speed=1.04x    
 2021-06-22 02:18:27,728 ERROR RY.TransferImagePro.Services.ImageTranformService.? [?] - MESSAGE: 接收数据：frame=   71 fps=7.7 q=2.0 size=N/A time=00:00:09.51 bitrate=N/A speed=1.03x    
 2021-06-22 02:18:28,254 ERROR RY.TransferImagePro.Services.ImageTranformService.? [?] - MESSAGE: 接收数据：frame=   75 fps=7.7 q=2.0 size=N/A time=00:00:10.06 bitrate=N/A speed=1.03x    
 2021-06-22 02:18:28,753 ERROR RY.TransferImagePro.Services.ImageTranformService.? [?] - MESSAGE: 接收数据：frame=   79 fps=7.7 q=2.0 size=N/A time=00:00:10.61 bitrate=N/A speed=1.04x    
 2021-06-22 02:18:29,277 ERROR RY.TransferImagePro.Services.ImageTranformService.? [?] - MESSAGE: 接收数据：frame=   82 fps=7.6 q=2.0 size=N/A time=00:00:11.03 bitrate=N/A speed=1.02x    
 2021-06-22 02:18:29,785 ERROR RY.TransferImagePro.Services.ImageTranformService.? [?] - MESSAGE: 接收数据：frame=   86 fps=7.6 q=2.0 size=N/A time=00:00:11.60 bitrate=N/A speed=1.03x    
 2021-06-22 02:18:30,304 ERROR RY.TransferImagePro.Services.ImageTranformService.? [?] - MESSAGE: 接收数据：frame=   90 fps=7.6 q=2.0 size=N/A time=00:00:12.15 bitrate=N/A speed=1.03x    
 2021-06-22 02:18:30,820 ERROR RY.TransferImagePro.Services.ImageTranformService.? [?] - MESSAGE: 接收数据：frame=   93 fps=7.6 q=2.0 size=N/A time=00:00:12.56 bitrate=N/A speed=1.02x    
 2021-06-22 02:18:31,319 ERROR RY.TransferImagePro.Services.ImageTranformService.? [?] - MESSAGE: 接收数据：frame=   97 fps=7.6 q=2.0 size=N/A time=00:00:13.11 bitrate=N/A speed=1.02x    
 2021-06-22 02:18:31,838 ERROR RY.TransferImagePro.Services.ImageTranformService.? [?] - MESSAGE: 接收数据：frame=  101 fps=7.6 q=2.0 size=N/A time=00:00:13.68 bitrate=N/A speed=1.03x    
 2021-06-22 02:18:32,387 ERROR RY.TransferImagePro.Services.ImageTranformService.? [?] - MESSAGE: 接收数据：frame=  105 fps=7.6 q=2.0 size=N/A time=00:00:14.23 bitrate=N/A speed=1.03x    
 2021-06-22 02:18:32,875 ERROR RY.TransferImagePro.Services.ImageTranformService.? [?] - MESSAGE: 接收数据：frame=  108 fps=7.5 q=2.0 size=N/A time=00:00:14.65 bitrate=N/A speed=1.02x    
 2021-06-22 02:18:33,369 ERROR RY.TransferImagePro.Services.ImageTranformService.? [?] - MESSAGE: 接收数据：frame=  112 fps=7.5 q=2.0 size=N/A time=00:00:15.20 bitrate=N/A speed=1.02x    
 2021-06-22 02:18:33,900 ERROR RY.TransferImagePro.Services.ImageTranformService.? [?] - MESSAGE: 接收数据：frame=  115 fps=7.5 q=2.0 size=N/A time=00:00:15.61 bitrate=N/A speed=1.02x    
 2021-06-22 02:18:34,404 ERROR RY.TransferImagePro.Services.ImageTranformService.? [?] - MESSAGE: 接收数据：frame=  119 fps=7.5 q=2.0 size=N/A time=00:00:16.18 bitrate=N/A speed=1.02x    
 2021-06-22 02:18:34,904 ERROR RY.TransferImagePro.Services.ImageTranformService.? [?] - MESSAGE: 接收数据：frame=  123 fps=7.5 q=2.0 size=N/A time=00:00:16.73 bitrate=N/A speed=1.02x    
 2021-06-22 02:18:35,434 ERROR RY.TransferImagePro.Services.ImageTranformService.? [?] - MESSAGE: 接收数据：frame=  127 fps=7.5 q=2.0 size=N/A time=00:00:17.28 bitrate=N/A speed=1.02x    
 2021-06-22 02:18:35,970 ERROR RY.TransferImagePro.Services.ImageTranformService.? [?] - MESSAGE: 接收数据：frame=  130 fps=7.4 q=2.0 size=N/A time=00:00:17.71 bitrate=N/A speed=1.02x    
 2021-06-22 02:18:36,497 ERROR RY.TransferImagePro.Services.ImageTranformService.? [?] - MESSAGE: 接收数据：frame=  134 fps=7.5 q=2.0 size=N/A time=00:00:18.28 bitrate=N/A speed=1.02x    
 2021-06-22 02:18:37,005 ERROR RY.TransferImagePro.Services.ImageTranformService.? [?] - MESSAGE: 接收数据：frame=  138 fps=7.5 q=2.0 size=N/A time=00:00:18.83 bitrate=N/A speed=1.02x    
 2021-06-22 02:18:37,540 ERROR RY.TransferImagePro.Services.ImageTranformService.? [?] - MESSAGE: 接收数据：frame=  142 fps=7.5 q=2.0 size=N/A time=00:00:19.38 bitrate=N/A speed=1.02x    
 2021-06-22 02:18:37,931 ERROR RY.TransferImagePro.Services.ImageTranformService.? [?] - MESSAGE: 接收数据：frame=  144 fps=7.4 q=2.0 Lsize=N/A time=00:00:19.95 bitrate=N/A speed=1.03x    
 2021-06-22 02:18:37,937 ERROR RY.TransferImagePro.Services.ImageTranformService.? [?] - MESSAGE: 接收数据：video:3007kB audio:0kB subtitle:0kB other streams:0kB global headers:0kB muxing overhead: unknown
 2021-06-22 02:18:38,484 ERROR RY.TransferImagePro.Services.ImageTranformService.? [?] - MESSAGE: 接收数据：ffmpeg version git-2020-04-12-f1894c2 Copyright (c) 2000-2020 the FFmpeg developers
 2021-06-22 02:18:38,488 ERROR RY.TransferImagePro.Services.ImageTranformService.? [?] - MESSAGE: 接收数据：  built with gcc 9.3.1 (GCC) 20200328
 2021-06-22 02:18:38,494 ERROR RY.TransferImagePro.Services.ImageTranformService.? [?] - MESSAGE: 接收数据：  configuration: --enable-gpl --enable-version3 --enable-sdl2 --enable-fontconfig --enable-gnutls --enable-iconv --enable-libass --enable-libdav1d --enable-libbluray --enable-libfreetype --enable-libmp3lame --enable-libopencore-amrnb --enable-libopencore-amrwb --enable-libopenjpeg --enable-libopus --enable-libshine --enable-libsnappy --enable-libsoxr --enable-libsrt --enable-libtheora --enable-libtwolame --enable-libvpx --enable-libwavpack --enable-libwebp --enable-libx264 --enable-libx265 --enable-libxml2 --enable-libzimg --enable-lzma --enable-zlib --enable-gmp --enable-libvidstab --enable-libvmaf --enable-libvorbis --enable-libvo-amrwbenc --enable-libmysofa --enable-libspeex --enable-libxvid --enable-libaom --disable-w32threads --enable-libmfx --enable-ffnvcodec --enable-cuda-llvm --enable-cuvid --enable-d3d11va --enable-nvenc --enable-nvdec --enable-dxva2 --enable-avisynth --enable-libopenmpt --enable-amf
 2021-06-22 02:18:38,499 ERROR RY.TransferImagePro.Services.ImageTranformService.? [?] - MESSAGE: 接收数据：  libavutil      56. 42.102 / 56. 42.102
 2021-06-22 02:18:38,505 ERROR RY.TransferImagePro.Services.ImageTranformService.? [?] - MESSAGE: 接收数据：  libavcodec     58. 78.102 / 58. 78.102
 2021-06-22 02:18:38,510 ERROR RY.TransferImagePro.Services.ImageTranformService.? [?] - MESSAGE: 接收数据：  libavformat    58. 42.100 / 58. 42.100
 2021-06-22 02:18:38,515 ERROR RY.TransferImagePro.Services.ImageTranformService.? [?] - MESSAGE: 接收数据：  libavdevice    58.  9.103 / 58.  9.103
 2021-06-22 02:18:38,520 ERROR RY.TransferImagePro.Services.ImageTranformService.? [?] - MESSAGE: 接收数据：  libavfilter     7. 77.101 /  7. 77.101
 2021-06-22 02:18:38,525 ERROR RY.TransferImagePro.Services.ImageTranformService.? [?] - MESSAGE: 接收数据：  libswscale      5.  6.101 /  5.  6.101
 2021-06-22 02:18:38,529 ERROR RY.TransferImagePro.Services.ImageTranformService.? [?] - MESSAGE: 接收数据：  libswresample   3.  6.100 /  3.  6.100
 2021-06-22 02:18:38,534 ERROR RY.TransferImagePro.Services.ImageTranformService.? [?] - MESSAGE: 接收数据：  libpostproc    55.  6.100 / 55.  6.100
 2021-06-22 02:18:39,880 ERROR RY.TransferImagePro.Services.ImageTranformService.? [?] - MESSAGE: 接收数据：Input #0, rtsp, from 'rtsp://192.168.1.168/0':
 2021-06-22 02:18:39,901 ERROR RY.TransferImagePro.Services.ImageTranformService.? [?] - MESSAGE: 接收数据：  Metadata:
 2021-06-22 02:18:39,909 ERROR RY.TransferImagePro.Services.ImageTranformService.? [?] - MESSAGE: 接收数据：    title           : Unnamed
 2021-06-22 02:18:39,916 ERROR RY.TransferImagePro.Services.ImageTranformService.? [?] - MESSAGE: 接收数据：    comment         : N/A
 2021-06-22 02:18:39,922 ERROR RY.TransferImagePro.Services.ImageTranformService.? [?] - MESSAGE: 接收数据：  Duration: N/A, start: 0.000000, bitrate: N/A
 2021-06-22 02:18:39,927 ERROR RY.TransferImagePro.Services.ImageTranformService.? [?] - MESSAGE: 接收数据：    Stream #0:0: Video: h264 (High), yuv420p(progressive), 1920x1080, 60 tbr, 90k tbn, 180k tbc
 2021-06-22 02:18:39,932 ERROR RY.TransferImagePro.Services.ImageTranformService.? [?] - MESSAGE: 接收数据：    Stream #0:1: Audio: aac (LC), 44100 Hz, stereo, fltp
 2021-06-22 02:18:39,938 ERROR RY.TransferImagePro.Services.ImageTranformService.? [?] - MESSAGE: 接收数据：Stream mapping:
 2021-06-22 02:18:39,945 ERROR RY.TransferImagePro.Services.ImageTranformService.? [?] - MESSAGE: 接收数据：  Stream #0:0 -> #0:0 (h264 (native) -> mjpeg (native))
 2021-06-22 02:18:39,950 ERROR RY.TransferImagePro.Services.ImageTranformService.? [?] - MESSAGE: 接收数据：Press [q] to stop, [?] for help
 2021-06-22 02:18:39,957 ERROR RY.TransferImagePro.Services.ImageTranformService.? [?] - MESSAGE: 接收数据：[swscaler @ 000001da47b9e000] deprecated pixel format used, make sure you did set range correctly
 2021-06-22 02:18:39,963 ERROR RY.TransferImagePro.Services.ImageTranformService.? [?] - MESSAGE: 接收数据：Output #0, image2, to 'E:\RY.TransferImagePro\RY.TransferImagePro\Images\20210622021837959\%05d.jpeg':
 2021-06-22 02:18:39,970 ERROR RY.TransferImagePro.Services.ImageTranformService.? [?] - MESSAGE: 接收数据：  Metadata:
 2021-06-22 02:18:39,977 ERROR RY.TransferImagePro.Services.ImageTranformService.? [?] - MESSAGE: 接收数据：    title           : Unnamed
 2021-06-22 02:18:39,983 ERROR RY.TransferImagePro.Services.ImageTranformService.? [?] - MESSAGE: 接收数据：    comment         : N/A
 2021-06-22 02:18:39,989 ERROR RY.TransferImagePro.Services.ImageTranformService.? [?] - MESSAGE: 接收数据：    encoder         : Lavf58.42.100
 2021-06-22 02:18:39,994 ERROR RY.TransferImagePro.Services.ImageTranformService.? [?] - MESSAGE: 接收数据：    Stream #0:0: Video: mjpeg, yuvj420p(pc), 1920x1080, q=2-31, 200 kb/s, 60 fps, 60 tbn, 60 tbc
 2021-06-22 02:18:39,999 ERROR RY.TransferImagePro.Services.ImageTranformService.? [?] - MESSAGE: 接收数据：    Metadata:
 2021-06-22 02:18:40,003 ERROR RY.TransferImagePro.Services.ImageTranformService.? [?] - MESSAGE: 接收数据：      encoder         : Lavc58.78.102 mjpeg
 2021-06-22 02:18:40,009 ERROR RY.TransferImagePro.Services.ImageTranformService.? [?] - MESSAGE: 接收数据：    Side data:
 2021-06-22 02:18:40,013 ERROR RY.TransferImagePro.Services.ImageTranformService.? [?] - MESSAGE: 接收数据：      cpb: bitrate max/min/avg: 0/0/200000 buffer size: 0 vbv_delay: N/A
 2021-06-22 02:18:40,444 ERROR RY.TransferImagePro.Services.ImageTranformService.? [?] - MESSAGE: 接收数据：frame=    9 fps=0.0 q=2.0 size=N/A time=00:00:00.95 bitrate=N/A speed=1.85x    
 2021-06-22 02:18:40,925 ERROR RY.TransferImagePro.Services.ImageTranformService.? [?] - MESSAGE: 接收数据：frame=   12 fps= 12 q=2.0 size=N/A time=00:00:01.36 bitrate=N/A speed=1.34x    
 2021-06-22 02:18:41,416 ERROR RY.TransferImagePro.Services.ImageTranformService.? [?] - MESSAGE: 接收数据：frame=   16 fps= 10 q=2.0 size=N/A time=00:00:01.93 bitrate=N/A speed=1.26x    
 2021-06-22 02:18:41,951 ERROR RY.TransferImagePro.Services.ImageTranformService.? [?] - MESSAGE: 接收数据：frame=   20 fps=9.7 q=2.0 size=N/A time=00:00:02.48 bitrate=N/A speed=1.21x    
 2021-06-22 02:18:42,448 ERROR RY.TransferImagePro.Services.ImageTranformService.? [?] - MESSAGE: 接收数据：frame=   23 fps=9.0 q=2.0 size=N/A time=00:00:02.90 bitrate=N/A speed=1.13x    
 2021-06-22 02:18:42,946 ERROR RY.TransferImagePro.Services.ImageTranformService.? [?] - MESSAGE: 接收数据：frame=   27 fps=8.8 q=2.0 size=N/A time=00:00:03.45 bitrate=N/A speed=1.12x    
 2021-06-22 02:18:43,461 ERROR RY.TransferImagePro.Services.ImageTranformService.? [?] - MESSAGE: 接收数据：frame=   30 fps=8.4 q=2.0 size=N/A time=00:00:03.86 bitrate=N/A speed=1.08x    
 2021-06-22 02:18:43,968 ERROR RY.TransferImagePro.Services.ImageTranformService.? [?] - MESSAGE: 接收数据：frame=   34 fps=8.3 q=2.0 size=N/A time=00:00:04.43 bitrate=N/A speed=1.09x    
 2021-06-22 02:18:44,465 ERROR RY.TransferImagePro.Services.ImageTranformService.? [?] - MESSAGE: 接收数据：frame=   38 fps=8.3 q=2.0 size=N/A time=00:00:04.98 bitrate=N/A speed=1.09x    
 2021-06-22 02:18:44,971 ERROR RY.TransferImagePro.Services.ImageTranformService.? [?] - MESSAGE: 接收数据：frame=   41 fps=8.1 q=2.0 size=N/A time=00:00:05.40 bitrate=N/A speed=1.06x    
 2021-06-22 02:18:45,489 ERROR RY.TransferImagePro.Services.ImageTranformService.? [?] - MESSAGE: 接收数据：frame=   45 fps=8.0 q=2.0 size=N/A time=00:00:05.95 bitrate=N/A speed=1.06x    
 2021-06-22 02:18:46,000 ERROR RY.TransferImagePro.Services.ImageTranformService.? [?] - MESSAGE: 接收数据：frame=   49 fps=8.0 q=2.0 size=N/A time=00:00:06.51 bitrate=N/A speed=1.07x    
 2021-06-22 02:18:46,504 ERROR RY.TransferImagePro.Services.ImageTranformService.? [?] - MESSAGE: 接收数据：frame=   52 fps=7.8 q=2.0 size=N/A time=00:00:06.93 bitrate=N/A speed=1.05x    
 2021-06-22 02:18:47,014 ERROR RY.TransferImagePro.Services.ImageTranformService.? [?] - MESSAGE: 接收数据：frame=   56 fps=7.9 q=2.0 size=N/A time=00:00:07.48 bitrate=N/A speed=1.05x    
 2021-06-22 02:18:47,538 ERROR RY.TransferImagePro.Services.ImageTranformService.? [?] - MESSAGE: 接收数据：frame=   60 fps=7.8 q=2.0 size=N/A time=00:00:08.03 bitrate=N/A speed=1.05x    
 2021-06-22 02:18:48,038 ERROR RY.TransferImagePro.Services.ImageTranformService.? [?] - MESSAGE: 接收数据：frame=   63 fps=7.7 q=2.0 size=N/A time=00:00:08.45 bitrate=N/A speed=1.03x    
 2021-06-22 02:18:48,574 ERROR RY.TransferImagePro.Services.ImageTranformService.? [?] - MESSAGE: 接收数据：frame=   67 fps=7.7 q=2.0 size=N/A time=00:00:09.01 bitrate=N/A speed=1.04x    
 2021-06-22 02:18:49,052 ERROR RY.TransferImagePro.Services.ImageTranformService.? [?] - MESSAGE: 接收数据：frame=   71 fps=7.7 q=2.0 size=N/A time=00:00:09.56 bitrate=N/A speed=1.04x    
 2021-06-22 02:18:49,586 ERROR RY.TransferImagePro.Services.ImageTranformService.? [?] - MESSAGE: 接收数据：frame=   74 fps=7.6 q=2.0 size=N/A time=00:00:09.98 bitrate=N/A speed=1.03x    
 2021-06-22 02:18:50,086 ERROR RY.TransferImagePro.Services.ImageTranformService.? [?] - MESSAGE: 接收数据：frame=   78 fps=7.6 q=2.0 size=N/A time=00:00:10.53 bitrate=N/A speed=1.03x    
 2021-06-22 02:18:50,610 ERROR RY.TransferImagePro.Services.ImageTranformService.? [?] - MESSAGE: 接收数据：frame=   82 fps=7.7 q=2.0 size=N/A time=00:00:11.10 bitrate=N/A speed=1.04x    
 2021-06-22 02:18:51,091 ERROR RY.TransferImagePro.Services.ImageTranformService.? [?] - MESSAGE: 接收数据：frame=   85 fps=7.6 q=2.0 size=N/A time=00:00:11.51 bitrate=N/A speed=1.03x    
 2021-06-22 02:18:51,598 ERROR RY.TransferImagePro.Services.ImageTranformService.? [?] - MESSAGE: 接收数据：frame=   89 fps=7.6 q=2.0 size=N/A time=00:00:12.06 bitrate=N/A speed=1.03x    
 2021-06-22 02:18:52,114 ERROR RY.TransferImagePro.Services.ImageTranformService.? [?] - MESSAGE: 接收数据：frame=   93 fps=7.6 q=2.0 size=N/A time=00:00:12.61 bitrate=N/A speed=1.03x    
 2021-06-22 02:18:52,631 ERROR RY.TransferImagePro.Services.ImageTranformService.? [?] - MESSAGE: 接收数据：frame=   96 fps=7.5 q=2.0 size=N/A time=00:00:13.03 bitrate=N/A speed=1.02x    
 2021-06-22 02:18:53,136 ERROR RY.TransferImagePro.Services.ImageTranformService.? [?] - MESSAGE: 接收数据：frame=  100 fps=7.5 q=2.0 size=N/A time=00:00:13.60 bitrate=N/A speed=1.03x    
 2021-06-22 02:18:53,633 ERROR RY.TransferImagePro.Services.ImageTranformService.? [?] - MESSAGE: 接收数据：frame=  104 fps=7.6 q=2.0 size=N/A time=00:00:14.15 bitrate=N/A speed=1.03x    
 2021-06-22 02:18:54,160 ERROR RY.TransferImagePro.Services.ImageTranformService.? [?] - MESSAGE: 接收数据：frame=  107 fps=7.5 q=2.0 size=N/A time=00:00:14.56 bitrate=N/A speed=1.02x    
 2021-06-22 02:18:54,665 ERROR RY.TransferImagePro.Services.ImageTranformService.? [?] - MESSAGE: 接收数据：frame=  111 fps=7.5 q=2.0 size=N/A time=00:00:15.11 bitrate=N/A speed=1.02x    
 2021-06-22 02:18:55,172 ERROR RY.TransferImagePro.Services.ImageTranformService.? [?] - MESSAGE: 接收数据：frame=  115 fps=7.5 q=2.0 size=N/A time=00:00:15.68 bitrate=N/A speed=1.03x    
 2021-06-22 02:18:55,684 ERROR RY.TransferImagePro.Services.ImageTranformService.? [?] - MESSAGE: 接收数据：frame=  118 fps=7.5 q=2.0 size=N/A time=00:00:16.10 bitrate=N/A speed=1.02x    
 2021-06-22 02:18:56,190 ERROR RY.TransferImagePro.Services.ImageTranformService.? [?] - MESSAGE: 接收数据：frame=  122 fps=7.5 q=2.0 size=N/A time=00:00:16.65 bitrate=N/A speed=1.02x    
 2021-06-22 02:18:56,698 ERROR RY.TransferImagePro.Services.ImageTranformService.? [?] - MESSAGE: 接收数据：frame=  126 fps=7.5 q=2.0 size=N/A time=00:00:17.20 bitrate=N/A speed=1.02x    
 2021-06-22 02:18:57,210 ERROR RY.TransferImagePro.Services.ImageTranformService.? [?] - MESSAGE: 接收数据：frame=  129 fps=7.4 q=2.0 size=N/A time=00:00:17.61 bitrate=N/A speed=1.02x    
 2021-06-22 02:18:57,755 ERROR RY.TransferImagePro.Services.ImageTranformService.? [?] - MESSAGE: 接收数据：frame=  133 fps=7.4 q=2.0 size=N/A time=00:00:18.20 bitrate=N/A speed=1.02x    
 2021-06-22 02:18:58,269 ERROR RY.TransferImagePro.Services.ImageTranformService.? [?] - MESSAGE: 接收数据：frame=  137 fps=7.5 q=2.0 size=N/A time=00:00:18.75 bitrate=N/A speed=1.02x    
 2021-06-22 02:18:58,756 ERROR RY.TransferImagePro.Services.ImageTranformService.? [?] - MESSAGE: 接收数据：frame=  140 fps=7.4 q=2.0 size=N/A time=00:00:19.16 bitrate=N/A speed=1.02x    
 2021-06-22 02:18:59,261 ERROR RY.TransferImagePro.Services.ImageTranformService.? [?] - MESSAGE: 接收数据：frame=  144 fps=7.4 q=2.0 size=N/A time=00:00:19.71 bitrate=N/A speed=1.02x    
 2021-06-22 02:18:59,343 ERROR RY.TransferImagePro.Services.ImageTranformService.? [?] - MESSAGE: 接收数据：frame=  144 fps=7.4 q=2.0 Lsize=N/A time=00:00:20.00 bitrate=N/A speed=1.03x    
 2021-06-22 02:18:59,349 ERROR RY.TransferImagePro.Services.ImageTranformService.? [?] - MESSAGE: 接收数据：video:3022kB audio:0kB subtitle:0kB other streams:0kB global headers:0kB muxing overhead: unknown
 2021-06-22 02:19:00,000 ERROR RY.TransferImagePro.Services.ImageTranformService.? [?] - MESSAGE: 接收数据：ffmpeg version git-2020-04-12-f1894c2 Copyright (c) 2000-2020 the FFmpeg developers
 2021-06-22 02:19:00,005 ERROR RY.TransferImagePro.Services.ImageTranformService.? [?] - MESSAGE: 接收数据：  built with gcc 9.3.1 (GCC) 20200328
 2021-06-22 02:19:00,010 ERROR RY.TransferImagePro.Services.ImageTranformService.? [?] - MESSAGE: 接收数据：  configuration: --enable-gpl --enable-version3 --enable-sdl2 --enable-fontconfig --enable-gnutls --enable-iconv --enable-libass --enable-libdav1d --enable-libbluray --enable-libfreetype --enable-libmp3lame --enable-libopencore-amrnb --enable-libopencore-amrwb --enable-libopenjpeg --enable-libopus --enable-libshine --enable-libsnappy --enable-libsoxr --enable-libsrt --enable-libtheora --enable-libtwolame --enable-libvpx --enable-libwavpack --enable-libwebp --enable-libx264 --enable-libx265 --enable-libxml2 --enable-libzimg --enable-lzma --enable-zlib --enable-gmp --enable-libvidstab --enable-libvmaf --enable-libvorbis --enable-libvo-amrwbenc --enable-libmysofa --enable-libspeex --enable-libxvid --enable-libaom --disable-w32threads --enable-libmfx --enable-ffnvcodec --enable-cuda-llvm --enable-cuvid --enable-d3d11va --enable-nvenc --enable-nvdec --enable-dxva2 --enable-avisynth --enable-libopenmpt --enable-amf
 2021-06-22 02:19:00,016 ERROR RY.TransferImagePro.Services.ImageTranformService.? [?] - MESSAGE: 接收数据：  libavutil      56. 42.102 / 56. 42.102
 2021-06-22 02:19:00,021 ERROR RY.TransferImagePro.Services.ImageTranformService.? [?] - MESSAGE: 接收数据：  libavcodec     58. 78.102 / 58. 78.102
 2021-06-22 02:19:00,026 ERROR RY.TransferImagePro.Services.ImageTranformService.? [?] - MESSAGE: 接收数据：  libavformat    58. 42.100 / 58. 42.100
 2021-06-22 02:19:00,031 ERROR RY.TransferImagePro.Services.ImageTranformService.? [?] - MESSAGE: 接收数据：  libavdevice    58.  9.103 / 58.  9.103
 2021-06-22 02:19:00,036 ERROR RY.TransferImagePro.Services.ImageTranformService.? [?] - MESSAGE: 接收数据：  libavfilter     7. 77.101 /  7. 77.101
 2021-06-22 02:19:00,039 ERROR RY.TransferImagePro.Services.ImageTranformService.? [?] - MESSAGE: 接收数据：  libswscale      5.  6.101 /  5.  6.101
 2021-06-22 02:19:00,044 ERROR RY.TransferImagePro.Services.ImageTranformService.? [?] - MESSAGE: 接收数据：  libswresample   3.  6.100 /  3.  6.100
 2021-06-22 02:19:00,048 ERROR RY.TransferImagePro.Services.ImageTranformService.? [?] - MESSAGE: 接收数据：  libpostproc    55.  6.100 / 55.  6.100
 2021-06-22 02:19:01,412 ERROR RY.TransferImagePro.Services.ImageTranformService.? [?] - MESSAGE: 接收数据：Input #0, rtsp, from 'rtsp://192.168.1.168/0':
 2021-06-22 02:19:01,423 ERROR RY.TransferImagePro.Services.ImageTranformService.? [?] - MESSAGE: 接收数据：  Metadata:
 2021-06-22 02:19:01,433 ERROR RY.TransferImagePro.Services.ImageTranformService.? [?] - MESSAGE: 接收数据：    title           : Unnamed
 2021-06-22 02:19:01,440 ERROR RY.TransferImagePro.Services.ImageTranformService.? [?] - MESSAGE: 接收数据：    comment         : N/A
 2021-06-22 02:19:01,446 ERROR RY.TransferImagePro.Services.ImageTranformService.? [?] - MESSAGE: 接收数据：  Duration: N/A, start: 0.000000, bitrate: N/A
 2021-06-22 02:19:01,451 ERROR RY.TransferImagePro.Services.ImageTranformService.? [?] - MESSAGE: 接收数据：    Stream #0:0: Video: h264 (High), yuv420p(progressive), 1920x1080, 60 tbr, 90k tbn, 180k tbc
 2021-06-22 02:19:01,457 ERROR RY.TransferImagePro.Services.ImageTranformService.? [?] - MESSAGE: 接收数据：    Stream #0:1: Audio: aac (LC), 44100 Hz, stereo, fltp
 2021-06-22 02:19:01,462 ERROR RY.TransferImagePro.Services.ImageTranformService.? [?] - MESSAGE: 接收数据：Stream mapping:
 2021-06-22 02:19:01,468 ERROR RY.TransferImagePro.Services.ImageTranformService.? [?] - MESSAGE: 接收数据：  Stream #0:0 -> #0:0 (h264 (native) -> mjpeg (native))
 2021-06-22 02:19:01,474 ERROR RY.TransferImagePro.Services.ImageTranformService.? [?] - MESSAGE: 接收数据：Press [q] to stop, [?] for help
 2021-06-22 02:19:01,481 ERROR RY.TransferImagePro.Services.ImageTranformService.? [?] - MESSAGE: 接收数据：[swscaler @ 000001df30fb0040] deprecated pixel format used, make sure you did set range correctly
 2021-06-22 02:19:01,488 ERROR RY.TransferImagePro.Services.ImageTranformService.? [?] - MESSAGE: 接收数据：Output #0, image2, to 'E:\RY.TransferImagePro\RY.TransferImagePro\Images\20210622021859368\%05d.jpeg':
 2021-06-22 02:19:01,495 ERROR RY.TransferImagePro.Services.ImageTranformService.? [?] - MESSAGE: 接收数据：  Metadata:
 2021-06-22 02:19:01,502 ERROR RY.TransferImagePro.Services.ImageTranformService.? [?] - MESSAGE: 接收数据：    title           : Unnamed
 2021-06-22 02:19:01,507 ERROR RY.TransferImagePro.Services.ImageTranformService.? [?] - MESSAGE: 接收数据：    comment         : N/A
 2021-06-22 02:19:01,512 ERROR RY.TransferImagePro.Services.ImageTranformService.? [?] - MESSAGE: 接收数据：    encoder         : Lavf58.42.100
 2021-06-22 02:19:01,516 ERROR RY.TransferImagePro.Services.ImageTranformService.? [?] - MESSAGE: 接收数据：    Stream #0:0: Video: mjpeg, yuvj420p(pc), 1920x1080, q=2-31, 200 kb/s, 60 fps, 60 tbn, 60 tbc
 2021-06-22 02:19:01,521 ERROR RY.TransferImagePro.Services.ImageTranformService.? [?] - MESSAGE: 接收数据：    Metadata:
 2021-06-22 02:19:01,525 ERROR RY.TransferImagePro.Services.ImageTranformService.? [?] - MESSAGE: 接收数据：      encoder         : Lavc58.78.102 mjpeg
 2021-06-22 02:19:01,528 ERROR RY.TransferImagePro.Services.ImageTranformService.? [?] - MESSAGE: 接收数据：    Side data:
 2021-06-22 02:19:01,532 ERROR RY.TransferImagePro.Services.ImageTranformService.? [?] - MESSAGE: 接收数据：      cpb: bitrate max/min/avg: 0/0/200000 buffer size: 0 vbv_delay: N/A
 2021-06-22 02:19:01,946 ERROR RY.TransferImagePro.Services.ImageTranformService.? [?] - MESSAGE: 接收数据：frame=    8 fps=0.0 q=2.0 size=N/A time=00:00:00.76 bitrate=N/A speed=1.46x    
 2021-06-22 02:19:02,460 ERROR RY.TransferImagePro.Services.ImageTranformService.? [?] - MESSAGE: 接收数据：frame=   12 fps= 12 q=2.0 size=N/A time=00:00:01.31 bitrate=N/A speed=1.27x    
 2021-06-22 02:19:02,999 ERROR RY.TransferImagePro.Services.ImageTranformService.? [?] - MESSAGE: 接收数据：frame=   16 fps= 10 q=2.0 size=N/A time=00:00:01.86 bitrate=N/A speed= 1.2x    
 2021-06-22 02:19:03,461 ERROR RY.TransferImagePro.Services.ImageTranformService.? [?] - MESSAGE: 接收数据：frame=   19 fps=9.3 q=2.0 size=N/A time=00:00:02.28 bitrate=N/A speed=1.11x    
 2021-06-22 02:19:03,975 ERROR RY.TransferImagePro.Services.ImageTranformService.? [?] - MESSAGE: 接收数据：frame=   23 fps=9.0 q=2.0 size=N/A time=00:00:02.85 bitrate=N/A speed=1.11x    
 2021-06-22 02:19:04,486 ERROR RY.TransferImagePro.Services.ImageTranformService.? [?] - MESSAGE: 接收数据：frame=   27 fps=8.8 q=2.0 size=N/A time=00:00:03.40 bitrate=N/A speed= 1.1x    
 2021-06-22 02:19:05,005 ERROR RY.TransferImagePro.Services.ImageTranformService.? [?] - MESSAGE: 接收数据：frame=   30 fps=8.3 q=2.0 size=N/A time=00:00:03.81 bitrate=N/A speed=1.06x    
 2021-06-22 02:19:05,518 ERROR RY.TransferImagePro.Services.ImageTranformService.? [?] - MESSAGE: 接收数据：frame=   34 fps=8.3 q=2.0 size=N/A time=00:00:04.36 bitrate=N/A speed=1.06x    
 2021-06-22 02:19:06,023 ERROR RY.TransferImagePro.Services.ImageTranformService.? [?] - MESSAGE: 接收数据：frame=   38 fps=8.2 q=2.0 size=N/A time=00:00:04.93 bitrate=N/A speed=1.07x    
 2021-06-22 02:19:06,575 ERROR RY.TransferImagePro.Services.ImageTranformService.? [?] - MESSAGE: 接收数据：frame=   42 fps=8.2 q=2.0 size=N/A time=00:00:05.48 bitrate=N/A speed=1.07x    
 2021-06-22 02:19:07,047 ERROR RY.TransferImagePro.Services.ImageTranformService.? [?] - MESSAGE: 接收数据：frame=   45 fps=8.0 q=2.0 size=N/A time=00:00:05.90 bitrate=N/A speed=1.05x    
 2021-06-22 02:19:07,579 ERROR RY.TransferImagePro.Services.ImageTranformService.? [?] - MESSAGE: 接收数据：frame=   49 fps=8.0 q=2.0 size=N/A time=00:00:06.45 bitrate=N/A speed=1.05x    
 2021-06-22 02:19:08,081 ERROR RY.TransferImagePro.Services.ImageTranformService.? [?] - MESSAGE: 接收数据：frame=   53 fps=7.9 q=2.0 size=N/A time=00:00:07.01 bitrate=N/A speed=1.05x    
 2021-06-22 02:19:08,581 ERROR RY.TransferImagePro.Services.ImageTranformService.? [?] - MESSAGE: 接收数据：frame=   56 fps=7.8 q=2.0 size=N/A time=00:00:07.43 bitrate=N/A speed=1.04x    
 2021-06-22 02:19:09,097 ERROR RY.TransferImagePro.Services.ImageTranformService.? [?] - MESSAGE: 接收数据：frame=   60 fps=7.8 q=2.0 size=N/A time=00:00:07.98 bitrate=N/A speed=1.04x    
 2021-06-22 02:19:09,613 ERROR RY.TransferImagePro.Services.ImageTranformService.? [?] - MESSAGE: 接收数据：frame=   64 fps=7.8 q=2.0 size=N/A time=00:00:08.53 bitrate=N/A speed=1.04x    
 2021-06-22 02:19:10,140 ERROR RY.TransferImagePro.Services.ImageTranformService.? [?] - MESSAGE: 接收数据：frame=   67 fps=7.7 q=2.0 size=N/A time=00:00:08.95 bitrate=N/A speed=1.03x    
 2021-06-22 02:19:10,670 ERROR RY.TransferImagePro.Services.ImageTranformService.? [?] - MESSAGE: 接收数据：frame=   71 fps=7.7 q=2.0 size=N/A time=00:00:09.51 bitrate=N/A speed=1.03x    
 2021-06-22 02:19:11,158 ERROR RY.TransferImagePro.Services.ImageTranformService.? [?] - MESSAGE: 接收数据：frame=   75 fps=7.7 q=2.0 size=N/A time=00:00:10.06 bitrate=N/A speed=1.03x    
 2021-06-22 02:19:11,673 ERROR RY.TransferImagePro.Services.ImageTranformService.? [?] - MESSAGE: 接收数据：frame=   78 fps=7.6 q=2.0 size=N/A time=00:00:10.48 bitrate=N/A speed=1.02x    
 2021-06-22 02:19:12,191 ERROR RY.TransferImagePro.Services.ImageTranformService.? [?] - MESSAGE: 接收数据：frame=   82 fps=7.6 q=2.0 size=N/A time=00:00:11.03 bitrate=N/A speed=1.03x    
 2021-06-22 02:19:12,677 ERROR RY.TransferImagePro.Services.ImageTranformService.? [?] - MESSAGE: 接收数据：frame=   86 fps=7.6 q=2.0 size=N/A time=00:00:11.60 bitrate=N/A speed=1.03x    
 2021-06-22 02:19:13,187 ERROR RY.TransferImagePro.Services.ImageTranformService.? [?] - MESSAGE: 接收数据：frame=   89 fps=7.6 q=2.0 size=N/A time=00:00:12.01 bitrate=N/A speed=1.02x    
 2021-06-22 02:19:13,688 ERROR RY.TransferImagePro.Services.ImageTranformService.? [?] - MESSAGE: 接收数据：frame=   93 fps=7.6 q=2.0 size=N/A time=00:00:12.56 bitrate=N/A speed=1.02x    
 2021-06-22 02:19:14,217 ERROR RY.TransferImagePro.Services.ImageTranformService.? [?] - MESSAGE: 接收数据：frame=   97 fps=7.6 q=2.0 size=N/A time=00:00:13.11 bitrate=N/A speed=1.02x    
 2021-06-22 02:19:14,758 ERROR RY.TransferImagePro.Services.ImageTranformService.? [?] - MESSAGE: 接收数据：frame=  100 fps=7.5 q=2.0 size=N/A time=00:00:13.53 bitrate=N/A speed=1.02x    
 2021-06-22 02:19:15,246 ERROR RY.TransferImagePro.Services.ImageTranformService.? [?] - MESSAGE: 接收数据：frame=  104 fps=7.5 q=2.0 size=N/A time=00:00:14.10 bitrate=N/A speed=1.02x    
 2021-06-22 02:19:15,747 ERROR RY.TransferImagePro.Services.ImageTranformService.? [?] - MESSAGE: 接收数据：frame=  108 fps=7.5 q=2.0 size=N/A time=00:00:14.65 bitrate=N/A speed=1.02x    
 2021-06-22 02:19:16,272 ERROR RY.TransferImagePro.Services.ImageTranformService.? [?] - MESSAGE: 接收数据：frame=  112 fps=7.5 q=2.0 size=N/A time=00:00:15.20 bitrate=N/A speed=1.02x    
 2021-06-22 02:19:16,778 ERROR RY.TransferImagePro.Services.ImageTranformService.? [?] - MESSAGE: 接收数据：frame=  115 fps=7.5 q=2.0 size=N/A time=00:00:15.61 bitrate=N/A speed=1.02x    
 2021-06-22 02:19:17,269 ERROR RY.TransferImagePro.Services.ImageTranformService.? [?] - MESSAGE: 接收数据：frame=  119 fps=7.5 q=2.0 size=N/A time=00:00:16.18 bitrate=N/A speed=1.02x    
 2021-06-22 02:19:17,820 ERROR RY.TransferImagePro.Services.ImageTranformService.? [?] - MESSAGE: 接收数据：frame=  123 fps=7.5 q=2.0 size=N/A time=00:00:16.73 bitrate=N/A speed=1.02x    
 2021-06-22 02:19:18,339 ERROR RY.TransferImagePro.Services.ImageTranformService.? [?] - MESSAGE: 接收数据：frame=  126 fps=7.4 q=2.0 size=N/A time=00:00:17.15 bitrate=N/A speed=1.01x    
 2021-06-22 02:19:18,847 ERROR RY.TransferImagePro.Services.ImageTranformService.? [?] - MESSAGE: 接收数据：frame=  130 fps=7.5 q=2.0 size=N/A time=00:00:17.71 bitrate=N/A speed=1.02x    
 2021-06-22 02:19:19,354 ERROR RY.TransferImagePro.Services.ImageTranformService.? [?] - MESSAGE: 接收数据：frame=  134 fps=7.5 q=2.0 size=N/A time=00:00:18.28 bitrate=N/A speed=1.02x    
 2021-06-22 02:19:19,895 ERROR RY.TransferImagePro.Services.ImageTranformService.? [?] - MESSAGE: 接收数据：frame=  137 fps=7.4 q=2.0 size=N/A time=00:00:18.70 bitrate=N/A speed=1.01x    
 2021-06-22 02:19:20,393 ERROR RY.TransferImagePro.Services.ImageTranformService.? [?] - MESSAGE: 接收数据：frame=  141 fps=7.4 q=2.0 size=N/A time=00:00:19.25 bitrate=N/A speed=1.01x    
 2021-06-22 02:19:20,884 ERROR RY.TransferImagePro.Services.ImageTranformService.? [?] - MESSAGE: 接收数据：frame=  144 fps=7.4 q=2.0 size=N/A time=00:00:19.66 bitrate=N/A speed=1.01x    
 2021-06-22 02:19:20,892 ERROR RY.TransferImagePro.Services.ImageTranformService.? [?] - MESSAGE: 接收数据：frame=  144 fps=7.4 q=2.0 Lsize=N/A time=00:00:19.95 bitrate=N/A speed=1.02x    
 2021-06-22 02:19:20,898 ERROR RY.TransferImagePro.Services.ImageTranformService.? [?] - MESSAGE: 接收数据：video:3015kB audio:0kB subtitle:0kB other streams:0kB global headers:0kB muxing overhead: unknown
 2021-06-22 02:19:21,439 ERROR RY.TransferImagePro.Services.ImageTranformService.? [?] - MESSAGE: 接收数据：ffmpeg version git-2020-04-12-f1894c2 Copyright (c) 2000-2020 the FFmpeg developers
 2021-06-22 02:19:21,444 ERROR RY.TransferImagePro.Services.ImageTranformService.? [?] - MESSAGE: 接收数据：  built with gcc 9.3.1 (GCC) 20200328
 2021-06-22 02:19:21,451 ERROR RY.TransferImagePro.Services.ImageTranformService.? [?] - MESSAGE: 接收数据：  configuration: --enable-gpl --enable-version3 --enable-sdl2 --enable-fontconfig --enable-gnutls --enable-iconv --enable-libass --enable-libdav1d --enable-libbluray --enable-libfreetype --enable-libmp3lame --enable-libopencore-amrnb --enable-libopencore-amrwb --enable-libopenjpeg --enable-libopus --enable-libshine --enable-libsnappy --enable-libsoxr --enable-libsrt --enable-libtheora --enable-libtwolame --enable-libvpx --enable-libwavpack --enable-libwebp --enable-libx264 --enable-libx265 --enable-libxml2 --enable-libzimg --enable-lzma --enable-zlib --enable-gmp --enable-libvidstab --enable-libvmaf --enable-libvorbis --enable-libvo-amrwbenc --enable-libmysofa --enable-libspeex --enable-libxvid --enable-libaom --disable-w32threads --enable-libmfx --enable-ffnvcodec --enable-cuda-llvm --enable-cuvid --enable-d3d11va --enable-nvenc --enable-nvdec --enable-dxva2 --enable-avisynth --enable-libopenmpt --enable-amf
 